<mxfile host="app.diagrams.net" modified="2023-04-23T19:01:45.956Z" agent="Mozilla/5.0 (Macintosh; Intel Mac OS X 10_15_7) AppleWebKit/537.36 (KHTML, like Gecko) Chrome/112.0.0.0 Safari/537.36" etag="JlBLK4Tj5tLCEKjfwtY0" version="21.1.2" type="device" pages="2">
  <diagram id="JOZZgkDuB0QcfrPPO1c8" name="Page-5">
    <mxGraphModel dx="2232" dy="1863" grid="1" gridSize="10" guides="1" tooltips="1" connect="1" arrows="1" fold="1" page="1" pageScale="1" pageWidth="827" pageHeight="1169" math="0" shadow="0">
      <root>
        <mxCell id="0" />
        <mxCell id="1" parent="0" />
        <mxCell id="lVlV7ATg_BY0pTCaOb4Z-1" value="8.0" style="swimlane;childLayout=stackLayout;horizontal=1;startSize=50;horizontalStack=0;rounded=1;fontSize=14;fontStyle=0;strokeWidth=2;resizeParent=0;resizeLast=1;shadow=0;dashed=0;align=center;arcSize=4;whiteSpace=wrap;html=1;" vertex="1" parent="1">
          <mxGeometry x="776.5" y="-139" width="160" height="120" as="geometry" />
        </mxCell>
        <mxCell id="lVlV7ATg_BY0pTCaOb4Z-44" value="&lt;font style=&quot;font-size: 14px;&quot;&gt;Search&lt;/font&gt;" style="text;html=1;align=center;verticalAlign=middle;resizable=0;points=[];autosize=1;strokeColor=none;fillColor=none;" vertex="1" parent="lVlV7ATg_BY0pTCaOb4Z-1">
          <mxGeometry y="50" width="160" height="70" as="geometry" />
        </mxCell>
        <mxCell id="lVlV7ATg_BY0pTCaOb4Z-3" value="Third-Party Notification Service" style="rounded=1;arcSize=10;whiteSpace=wrap;html=1;align=center;" vertex="1" parent="1">
          <mxGeometry x="1056.5" y="114" width="100" height="50" as="geometry" />
        </mxCell>
        <mxCell id="lVlV7ATg_BY0pTCaOb4Z-5" value="External Database" style="rounded=1;arcSize=10;whiteSpace=wrap;html=1;align=center;" vertex="1" parent="1">
          <mxGeometry x="1056.5" y="-445" width="100" height="40" as="geometry" />
        </mxCell>
        <mxCell id="lVlV7ATg_BY0pTCaOb4Z-6" value="Medical Equipment" style="rounded=1;arcSize=10;whiteSpace=wrap;html=1;align=center;" vertex="1" parent="1">
          <mxGeometry x="1056.5" y="-574" width="100" height="40" as="geometry" />
        </mxCell>
        <mxCell id="lVlV7ATg_BY0pTCaOb4Z-7" value="Desktop/Laptop Computer&lt;br/&gt;" style="rounded=1;arcSize=10;whiteSpace=wrap;html=1;align=center;" vertex="1" parent="1">
          <mxGeometry x="135" y="80" width="100" height="40" as="geometry" />
        </mxCell>
        <mxCell id="lVlV7ATg_BY0pTCaOb4Z-8" value="Mobile Device" style="rounded=1;arcSize=10;whiteSpace=wrap;html=1;align=center;" vertex="1" parent="1">
          <mxGeometry x="-23" y="20" width="100" height="40" as="geometry" />
        </mxCell>
        <mxCell id="lVlV7ATg_BY0pTCaOb4Z-9" value="Healthcare Provider Administrator" style="rounded=1;arcSize=10;whiteSpace=wrap;html=1;align=center;" vertex="1" parent="1">
          <mxGeometry x="575.5" y="645" width="100" height="50" as="geometry" />
        </mxCell>
        <mxCell id="lVlV7ATg_BY0pTCaOb4Z-10" value="Healthcare Provider" style="rounded=1;arcSize=10;whiteSpace=wrap;html=1;align=center;" vertex="1" parent="1">
          <mxGeometry x="340" y="1240" width="100" height="40" as="geometry" />
        </mxCell>
        <mxCell id="lVlV7ATg_BY0pTCaOb4Z-13" value="7.0" style="swimlane;childLayout=stackLayout;horizontal=1;startSize=50;horizontalStack=0;rounded=1;fontSize=14;fontStyle=0;strokeWidth=2;resizeParent=0;resizeLast=1;shadow=0;dashed=0;align=center;arcSize=4;whiteSpace=wrap;html=1;" vertex="1" parent="1">
          <mxGeometry x="570" y="880" width="160" height="120" as="geometry" />
        </mxCell>
        <mxCell id="lVlV7ATg_BY0pTCaOb4Z-42" value="&lt;font style=&quot;font-size: 14px;&quot;&gt;User Permissions&lt;/font&gt;" style="text;html=1;align=center;verticalAlign=middle;resizable=0;points=[];autosize=1;strokeColor=none;fillColor=none;" vertex="1" parent="lVlV7ATg_BY0pTCaOb4Z-13">
          <mxGeometry y="50" width="160" height="70" as="geometry" />
        </mxCell>
        <mxCell id="lVlV7ATg_BY0pTCaOb4Z-15" value="6.0" style="swimlane;childLayout=stackLayout;horizontal=1;startSize=50;horizontalStack=0;rounded=1;fontSize=14;fontStyle=0;strokeWidth=2;resizeParent=0;resizeLast=1;shadow=0;dashed=0;align=center;arcSize=4;whiteSpace=wrap;html=1;" vertex="1" parent="1">
          <mxGeometry x="-234" y="880" width="160" height="120" as="geometry" />
        </mxCell>
        <mxCell id="lVlV7ATg_BY0pTCaOb4Z-39" value="&lt;font style=&quot;font-size: 14px;&quot;&gt;Collaboration &amp;amp; &lt;br&gt;Search&lt;/font&gt;" style="text;html=1;align=center;verticalAlign=middle;resizable=0;points=[];autosize=1;strokeColor=none;fillColor=none;" vertex="1" parent="lVlV7ATg_BY0pTCaOb4Z-15">
          <mxGeometry y="50" width="160" height="70" as="geometry" />
        </mxCell>
        <mxCell id="lVlV7ATg_BY0pTCaOb4Z-19" value="4.0" style="swimlane;childLayout=stackLayout;horizontal=1;startSize=50;horizontalStack=0;rounded=1;fontSize=14;fontStyle=0;strokeWidth=2;resizeParent=0;resizeLast=1;shadow=0;dashed=0;align=center;arcSize=4;whiteSpace=wrap;html=1;" vertex="1" parent="1">
          <mxGeometry x="30" y="880" width="160" height="120" as="geometry" />
        </mxCell>
        <mxCell id="lVlV7ATg_BY0pTCaOb4Z-34" value="&lt;font style=&quot;font-size: 14px;&quot;&gt;Appointment &lt;br&gt;Management&lt;/font&gt;" style="text;html=1;align=center;verticalAlign=middle;resizable=0;points=[];autosize=1;strokeColor=none;fillColor=none;" vertex="1" parent="lVlV7ATg_BY0pTCaOb4Z-19">
          <mxGeometry y="50" width="160" height="70" as="geometry" />
        </mxCell>
        <mxCell id="lVlV7ATg_BY0pTCaOb4Z-25" value="1.0" style="swimlane;childLayout=stackLayout;horizontal=1;startSize=50;horizontalStack=0;rounded=1;fontSize=14;fontStyle=0;strokeWidth=2;resizeParent=0;resizeLast=1;shadow=0;dashed=0;align=center;arcSize=4;whiteSpace=wrap;html=1;" vertex="1" parent="1">
          <mxGeometry x="310" y="880" width="160" height="120" as="geometry" />
        </mxCell>
        <mxCell id="lVlV7ATg_BY0pTCaOb4Z-64" value="&lt;font style=&quot;font-size: 14px;&quot;&gt;Registration &amp;amp; &lt;br&gt;Profile Management&lt;/font&gt;" style="text;html=1;align=center;verticalAlign=middle;resizable=0;points=[];autosize=1;strokeColor=none;fillColor=none;container=1;" vertex="1" parent="lVlV7ATg_BY0pTCaOb4Z-25">
          <mxGeometry y="50" width="160" height="70" as="geometry" />
        </mxCell>
        <mxCell id="lVlV7ATg_BY0pTCaOb4Z-23" value="2.0" style="swimlane;childLayout=stackLayout;horizontal=1;startSize=50;horizontalStack=0;rounded=1;fontSize=14;fontStyle=0;strokeWidth=2;resizeParent=0;resizeLast=1;shadow=0;dashed=0;align=center;arcSize=4;whiteSpace=wrap;html=1;container=0;" vertex="1" parent="1">
          <mxGeometry x="813.5" y="880" width="160" height="120" as="geometry" />
        </mxCell>
        <mxCell id="lVlV7ATg_BY0pTCaOb4Z-31" value="&lt;font style=&quot;font-size: 14px;&quot;&gt;Prescription &lt;br&gt;Management&lt;/font&gt;" style="text;html=1;align=center;verticalAlign=middle;resizable=0;points=[];autosize=1;strokeColor=none;fillColor=none;container=1;" vertex="1" parent="lVlV7ATg_BY0pTCaOb4Z-23">
          <mxGeometry y="50" width="160" height="70" as="geometry" />
        </mxCell>
        <mxCell id="lVlV7ATg_BY0pTCaOb4Z-21" value="3.0" style="swimlane;childLayout=stackLayout;horizontal=1;startSize=50;horizontalStack=0;rounded=1;fontSize=14;fontStyle=0;strokeWidth=2;resizeParent=0;resizeLast=1;shadow=0;dashed=0;align=center;arcSize=4;whiteSpace=wrap;html=1;" vertex="1" parent="1">
          <mxGeometry x="276.5" y="-329" width="160" height="120" as="geometry" />
        </mxCell>
        <mxCell id="lVlV7ATg_BY0pTCaOb4Z-28" value="&lt;font style=&quot;font-size: 14px;&quot;&gt;Profile Management&lt;/font&gt;" style="text;html=1;align=center;verticalAlign=middle;resizable=0;points=[];autosize=1;strokeColor=none;fillColor=none;container=1;" vertex="1" parent="lVlV7ATg_BY0pTCaOb4Z-21">
          <mxGeometry y="50" width="160" height="70" as="geometry" />
        </mxCell>
        <mxCell id="lVlV7ATg_BY0pTCaOb4Z-47" value="" style="group" vertex="1" connectable="0" parent="1">
          <mxGeometry x="-270" y="60" width="146" height="30" as="geometry" />
        </mxCell>
        <mxCell id="lVlV7ATg_BY0pTCaOb4Z-45" value="D6" style="html=1;dashed=0;whiteSpace=wrap;shape=mxgraph.dfd.dataStoreID;align=left;spacingLeft=3;points=[[0,0],[0.5,0],[1,0],[0,0.5],[1,0.5],[0,1],[0.5,1],[1,1]];container=1;" vertex="1" parent="lVlV7ATg_BY0pTCaOb4Z-47">
          <mxGeometry width="140" height="30" as="geometry">
            <mxRectangle width="60" height="30" as="alternateBounds" />
          </mxGeometry>
        </mxCell>
        <mxCell id="lVlV7ATg_BY0pTCaOb4Z-46" value="&lt;font style=&quot;font-size: 14px;&quot;&gt;Medical Data&lt;/font&gt;" style="text;html=1;align=center;verticalAlign=middle;resizable=0;points=[];autosize=1;strokeColor=none;fillColor=none;container=1;" vertex="1" parent="lVlV7ATg_BY0pTCaOb4Z-47">
          <mxGeometry x="31" width="110" height="30" as="geometry" />
        </mxCell>
        <mxCell id="lVlV7ATg_BY0pTCaOb4Z-48" value="" style="group" vertex="1" connectable="0" parent="1">
          <mxGeometry x="-317" y="200" width="146" height="30" as="geometry" />
        </mxCell>
        <mxCell id="lVlV7ATg_BY0pTCaOb4Z-49" value="D5" style="html=1;dashed=0;whiteSpace=wrap;shape=mxgraph.dfd.dataStoreID;align=left;spacingLeft=3;points=[[0,0],[0.5,0],[1,0],[0,0.5],[1,0.5],[0,1],[0.5,1],[1,1]];container=1;" vertex="1" parent="lVlV7ATg_BY0pTCaOb4Z-48">
          <mxGeometry width="140" height="30" as="geometry">
            <mxRectangle width="60" height="30" as="alternateBounds" />
          </mxGeometry>
        </mxCell>
        <mxCell id="lVlV7ATg_BY0pTCaOb4Z-50" value="&lt;font style=&quot;font-size: 14px;&quot;&gt;Notification&lt;/font&gt;" style="text;html=1;align=center;verticalAlign=middle;resizable=0;points=[];autosize=1;strokeColor=none;fillColor=none;container=1;" vertex="1" parent="lVlV7ATg_BY0pTCaOb4Z-48">
          <mxGeometry x="41" width="90" height="30" as="geometry" />
        </mxCell>
        <mxCell id="lVlV7ATg_BY0pTCaOb4Z-51" value="" style="group" vertex="1" connectable="0" parent="1">
          <mxGeometry x="-141" y="205" width="146" height="30" as="geometry" />
        </mxCell>
        <mxCell id="lVlV7ATg_BY0pTCaOb4Z-52" value="D4" style="html=1;dashed=0;whiteSpace=wrap;shape=mxgraph.dfd.dataStoreID;align=left;spacingLeft=3;points=[[0,0],[0.5,0],[1,0],[0,0.5],[1,0.5],[0,1],[0.5,1],[1,1]];container=1;" vertex="1" parent="lVlV7ATg_BY0pTCaOb4Z-51">
          <mxGeometry width="140" height="30" as="geometry" />
        </mxCell>
        <mxCell id="lVlV7ATg_BY0pTCaOb4Z-53" value="&lt;font style=&quot;font-size: 14px;&quot;&gt;Appointment&lt;/font&gt;" style="text;html=1;align=center;verticalAlign=middle;resizable=0;points=[];autosize=1;strokeColor=none;fillColor=none;container=1;" vertex="1" parent="lVlV7ATg_BY0pTCaOb4Z-51">
          <mxGeometry x="36" width="100" height="30" as="geometry" />
        </mxCell>
        <mxCell id="lVlV7ATg_BY0pTCaOb4Z-54" value="" style="group" vertex="1" connectable="0" parent="1">
          <mxGeometry x="-380" y="270" width="146" height="30" as="geometry" />
        </mxCell>
        <mxCell id="lVlV7ATg_BY0pTCaOb4Z-55" value="D3" style="html=1;dashed=0;whiteSpace=wrap;shape=mxgraph.dfd.dataStoreID;align=left;spacingLeft=3;points=[[0,0],[0.5,0],[1,0],[0,0.5],[1,0.5],[0,1],[0.5,1],[1,1]];container=1;" vertex="1" parent="lVlV7ATg_BY0pTCaOb4Z-54">
          <mxGeometry width="140" height="30" as="geometry">
            <mxRectangle width="60" height="30" as="alternateBounds" />
          </mxGeometry>
        </mxCell>
        <mxCell id="lVlV7ATg_BY0pTCaOb4Z-56" value="&lt;font style=&quot;font-size: 14px;&quot;&gt;Prescription&lt;/font&gt;" style="text;html=1;align=center;verticalAlign=middle;resizable=0;points=[];autosize=1;strokeColor=none;fillColor=none;container=1;" vertex="1" parent="lVlV7ATg_BY0pTCaOb4Z-54">
          <mxGeometry x="36" width="100" height="30" as="geometry" />
        </mxCell>
        <mxCell id="lVlV7ATg_BY0pTCaOb4Z-60" value="" style="group" vertex="1" connectable="0" parent="1">
          <mxGeometry x="1030.5" y="-284" width="146" height="30" as="geometry" />
        </mxCell>
        <mxCell id="lVlV7ATg_BY0pTCaOb4Z-61" value="D1" style="html=1;dashed=0;whiteSpace=wrap;shape=mxgraph.dfd.dataStoreID;align=left;spacingLeft=3;points=[[0,0],[0.5,0],[1,0],[0,0.5],[1,0.5],[0,1],[0.5,1],[1,1]];container=1;" vertex="1" parent="lVlV7ATg_BY0pTCaOb4Z-60">
          <mxGeometry width="140" height="30" as="geometry">
            <mxRectangle width="60" height="30" as="alternateBounds" />
          </mxGeometry>
        </mxCell>
        <mxCell id="lVlV7ATg_BY0pTCaOb4Z-62" value="&lt;font style=&quot;font-size: 14px;&quot;&gt;Patient Profiles&lt;/font&gt;" style="text;html=1;align=center;verticalAlign=middle;resizable=0;points=[];autosize=1;strokeColor=none;fillColor=none;container=1;" vertex="1" parent="lVlV7ATg_BY0pTCaOb4Z-60">
          <mxGeometry x="26" width="120" height="30" as="geometry" />
        </mxCell>
        <mxCell id="lVlV7ATg_BY0pTCaOb4Z-63" value="" style="group" vertex="1" connectable="0" parent="1">
          <mxGeometry x="60" y="205" width="223" height="30" as="geometry" />
        </mxCell>
        <mxCell id="lVlV7ATg_BY0pTCaOb4Z-58" value="D2" style="html=1;dashed=0;whiteSpace=wrap;shape=mxgraph.dfd.dataStoreID;align=left;spacingLeft=3;points=[[0,0],[0.5,0],[1,0],[0,0.5],[1,0.5],[0,1],[0.5,1],[1,1]];container=1;" vertex="1" parent="lVlV7ATg_BY0pTCaOb4Z-63">
          <mxGeometry width="216" height="30" as="geometry" />
        </mxCell>
        <mxCell id="lVlV7ATg_BY0pTCaOb4Z-59" value="&lt;font style=&quot;font-size: 14px;&quot;&gt;Healthcare Provider Profiles&lt;/font&gt;" style="text;html=1;align=center;verticalAlign=middle;resizable=0;points=[];autosize=1;strokeColor=none;fillColor=none;container=0;" vertex="1" parent="lVlV7ATg_BY0pTCaOb4Z-63">
          <mxGeometry x="23" width="200" height="30" as="geometry" />
        </mxCell>
        <mxCell id="lVlV7ATg_BY0pTCaOb4Z-67" value="" style="edgeStyle=none;orthogonalLoop=1;jettySize=auto;html=1;rounded=0;exitX=0.5;exitY=1;exitDx=0;exitDy=0;entryX=0.5;entryY=0;entryDx=0;entryDy=0;" edge="1" parent="1" source="lVlV7ATg_BY0pTCaOb4Z-11" target="lVlV7ATg_BY0pTCaOb4Z-25">
          <mxGeometry width="100" relative="1" as="geometry">
            <mxPoint x="40" y="810" as="sourcePoint" />
            <mxPoint x="160" y="810" as="targetPoint" />
            <Array as="points">
              <mxPoint x="390" y="720" />
            </Array>
          </mxGeometry>
        </mxCell>
        <mxCell id="lVlV7ATg_BY0pTCaOb4Z-69" value="Patient Info" style="text;html=1;align=center;verticalAlign=middle;resizable=0;points=[];autosize=1;strokeColor=none;fillColor=none;flipH=1;flipV=1;rotation=-90;" vertex="1" parent="1">
          <mxGeometry x="335" y="770" width="80" height="30" as="geometry" />
        </mxCell>
        <mxCell id="lVlV7ATg_BY0pTCaOb4Z-71" value="" style="edgeStyle=none;orthogonalLoop=1;jettySize=auto;html=1;rounded=0;exitX=1.008;exitY=0.633;exitDx=0;exitDy=0;exitPerimeter=0;entryX=1.008;entryY=0.633;entryDx=0;entryDy=0;entryPerimeter=0;" edge="1" parent="1" target="lVlV7ATg_BY0pTCaOb4Z-28">
          <mxGeometry width="100" relative="1" as="geometry">
            <mxPoint x="556.5" y="-235" as="sourcePoint" />
            <mxPoint x="456.5" y="-235" as="targetPoint" />
            <Array as="points" />
          </mxGeometry>
        </mxCell>
        <mxCell id="lVlV7ATg_BY0pTCaOb4Z-72" value="&lt;font style=&quot;font-size: 10px;&quot;&gt;Profile Updates&lt;/font&gt;" style="text;html=1;align=center;verticalAlign=middle;resizable=0;points=[];autosize=1;strokeColor=none;fillColor=none;" vertex="1" parent="1">
          <mxGeometry x="448.5" y="-261" width="90" height="30" as="geometry" />
        </mxCell>
        <mxCell id="lVlV7ATg_BY0pTCaOb4Z-74" value="&lt;font style=&quot;font-size: 10px;&quot;&gt;Handle Appointments&lt;/font&gt;" style="text;html=1;align=center;verticalAlign=middle;resizable=0;points=[];autosize=1;strokeColor=none;fillColor=none;rotation=0;" vertex="1" parent="1">
          <mxGeometry x="418.5" y="-195" width="120" height="30" as="geometry" />
        </mxCell>
        <mxCell id="lVlV7ATg_BY0pTCaOb4Z-76" value="&lt;font style=&quot;font-size: 10px;&quot;&gt;System Search&lt;/font&gt;" style="text;html=1;align=center;verticalAlign=middle;resizable=0;points=[];autosize=1;strokeColor=none;fillColor=none;" vertex="1" parent="1">
          <mxGeometry x="658.5" y="-194" width="90" height="30" as="geometry" />
        </mxCell>
        <mxCell id="lVlV7ATg_BY0pTCaOb4Z-78" value="&lt;font style=&quot;font-size: 10px;&quot;&gt;Notification Handling&lt;/font&gt;" style="text;html=1;align=center;verticalAlign=middle;resizable=0;points=[];autosize=1;strokeColor=none;fillColor=none;" vertex="1" parent="1">
          <mxGeometry x="611.5" y="114" width="120" height="30" as="geometry" />
        </mxCell>
        <mxCell id="lVlV7ATg_BY0pTCaOb4Z-81" value="&lt;font style=&quot;font-size: 10px;&quot;&gt;User Registration&lt;/font&gt;" style="text;html=1;align=center;verticalAlign=middle;resizable=0;points=[];autosize=1;strokeColor=none;fillColor=none;" vertex="1" parent="1">
          <mxGeometry x="686.5" y="-416" width="100" height="30" as="geometry" />
        </mxCell>
        <mxCell id="lVlV7ATg_BY0pTCaOb4Z-83" value="&lt;font style=&quot;font-size: 10px;&quot;&gt;Profile Updates&lt;/font&gt;" style="text;html=1;align=center;verticalAlign=middle;resizable=0;points=[];autosize=1;strokeColor=none;fillColor=none;" vertex="1" parent="1">
          <mxGeometry x="412.5" y="-464" width="90" height="30" as="geometry" />
        </mxCell>
        <mxCell id="lVlV7ATg_BY0pTCaOb4Z-85" value="&lt;font style=&quot;font-size: 10px;&quot;&gt;Manage Prescriptions&lt;/font&gt;" style="text;html=1;align=center;verticalAlign=middle;resizable=0;points=[];autosize=1;strokeColor=none;fillColor=none;" vertex="1" parent="1">
          <mxGeometry x="449.5" y="-577" width="120" height="30" as="geometry" />
        </mxCell>
        <mxCell id="lVlV7ATg_BY0pTCaOb4Z-87" value="&lt;font style=&quot;font-size: 10px;&quot;&gt;Handle Appointments&lt;/font&gt;" style="text;html=1;align=center;verticalAlign=middle;resizable=0;points=[];autosize=1;strokeColor=none;fillColor=none;" vertex="1" parent="1">
          <mxGeometry x="426.5" y="-79" width="120" height="30" as="geometry" />
        </mxCell>
        <mxCell id="lVlV7ATg_BY0pTCaOb4Z-89" value="&lt;font style=&quot;font-size: 10px;&quot;&gt;Provider Collaboration&lt;/font&gt;" style="text;html=1;align=center;verticalAlign=middle;resizable=0;points=[];autosize=1;strokeColor=none;fillColor=none;" vertex="1" parent="1">
          <mxGeometry x="636.5" y="-576" width="120" height="30" as="geometry" />
        </mxCell>
        <mxCell id="lVlV7ATg_BY0pTCaOb4Z-91" value="&lt;font style=&quot;font-size: 10px;&quot;&gt;Permission Management&lt;/font&gt;" style="text;html=1;align=center;verticalAlign=middle;resizable=0;points=[];autosize=1;strokeColor=none;fillColor=none;rotation=270;" vertex="1" parent="1">
          <mxGeometry x="531.5" y="-604" width="130" height="30" as="geometry" />
        </mxCell>
        <mxCell id="lVlV7ATg_BY0pTCaOb4Z-11" value="Patient" style="rounded=1;arcSize=10;whiteSpace=wrap;html=1;align=center;" vertex="1" parent="1">
          <mxGeometry x="340" y="650" width="100" height="40" as="geometry" />
        </mxCell>
        <mxCell id="lVlV7ATg_BY0pTCaOb4Z-94" value="&lt;font style=&quot;font-size: 10px;&quot;&gt;System Search&lt;/font&gt;" style="text;html=1;align=center;verticalAlign=middle;resizable=0;points=[];autosize=1;strokeColor=none;fillColor=none;" vertex="1" parent="1">
          <mxGeometry x="663.5" y="-56" width="90" height="30" as="geometry" />
        </mxCell>
        <mxCell id="lVlV7ATg_BY0pTCaOb4Z-95" value="&lt;font style=&quot;font-size: 10px;&quot;&gt;Notification Handling&lt;/font&gt;" style="text;html=1;align=center;verticalAlign=middle;resizable=0;points=[];autosize=1;strokeColor=none;fillColor=none;rotation=270;" vertex="1" parent="1">
          <mxGeometry x="675.5" y="35" width="120" height="30" as="geometry" />
        </mxCell>
        <mxCell id="lVlV7ATg_BY0pTCaOb4Z-99" value="&lt;font style=&quot;font-size: 10px;&quot;&gt;Permission Management&lt;/font&gt;" style="text;html=1;align=center;verticalAlign=middle;resizable=0;points=[];autosize=1;strokeColor=none;fillColor=none;" vertex="1" parent="1">
          <mxGeometry x="683.5" y="-770" width="130" height="30" as="geometry" />
        </mxCell>
        <mxCell id="lVlV7ATg_BY0pTCaOb4Z-101" value="&lt;font style=&quot;font-size: 10px;&quot;&gt;Medical Data Exchange&lt;/font&gt;" style="text;html=1;align=center;verticalAlign=middle;resizable=0;points=[];autosize=1;strokeColor=none;fillColor=none;" vertex="1" parent="1">
          <mxGeometry x="935.5" y="-578" width="130" height="30" as="geometry" />
        </mxCell>
        <mxCell id="lVlV7ATg_BY0pTCaOb4Z-103" value="&lt;font style=&quot;font-size: 10px;&quot;&gt;Medical Data Exchange&lt;/font&gt;" style="text;html=1;align=center;verticalAlign=middle;resizable=0;points=[];autosize=1;strokeColor=none;fillColor=none;" vertex="1" parent="1">
          <mxGeometry x="900.5" y="-455" width="130" height="30" as="geometry" />
        </mxCell>
        <mxCell id="lVlV7ATg_BY0pTCaOb4Z-105" value="&lt;font style=&quot;font-size: 10px;&quot;&gt;Send Notifications&lt;/font&gt;" style="text;html=1;align=center;verticalAlign=middle;resizable=0;points=[];autosize=1;strokeColor=none;fillColor=none;" vertex="1" parent="1">
          <mxGeometry x="946.5" y="111" width="100" height="30" as="geometry" />
        </mxCell>
        <mxCell id="lVlV7ATg_BY0pTCaOb4Z-107" value="&lt;font style=&quot;font-size: 10px;&quot;&gt;User Registration&lt;/font&gt;" style="text;html=1;align=center;verticalAlign=middle;resizable=0;points=[];autosize=1;strokeColor=none;fillColor=none;" vertex="1" parent="1">
          <mxGeometry x="929.5" y="-295" width="100" height="30" as="geometry" />
        </mxCell>
        <mxCell id="lVlV7ATg_BY0pTCaOb4Z-109" value="&lt;font style=&quot;font-size: 10px;&quot;&gt;User Registration&lt;/font&gt;" style="text;html=1;align=center;verticalAlign=middle;resizable=0;points=[];autosize=1;strokeColor=none;fillColor=none;" vertex="1" parent="1">
          <mxGeometry x="876.5" y="-204" width="100" height="30" as="geometry" />
        </mxCell>
        <mxCell id="lVlV7ATg_BY0pTCaOb4Z-112" value="" style="edgeStyle=none;orthogonalLoop=1;jettySize=auto;html=1;rounded=0;exitX=0.25;exitY=0;exitDx=0;exitDy=0;entryX=0.435;entryY=-0.044;entryDx=0;entryDy=0;entryPerimeter=0;" edge="1" parent="1" source="lVlV7ATg_BY0pTCaOb4Z-21" target="lVlV7ATg_BY0pTCaOb4Z-62">
          <mxGeometry width="100" relative="1" as="geometry">
            <mxPoint x="146.5" y="-389" as="sourcePoint" />
            <mxPoint x="246.5" y="-389" as="targetPoint" />
            <Array as="points">
              <mxPoint x="316.5" y="-369" />
              <mxPoint x="1108.5" y="-369" />
            </Array>
          </mxGeometry>
        </mxCell>
        <mxCell id="lVlV7ATg_BY0pTCaOb4Z-113" value="&lt;font style=&quot;font-size: 10px;&quot;&gt;Profile Updates&lt;/font&gt;" style="text;html=1;align=center;verticalAlign=middle;resizable=0;points=[];autosize=1;strokeColor=none;fillColor=none;rotation=-90;" vertex="1" parent="1">
          <mxGeometry x="1051.5" y="-344" width="90" height="30" as="geometry" />
        </mxCell>
        <mxCell id="lVlV7ATg_BY0pTCaOb4Z-114" value="" style="edgeStyle=none;orthogonalLoop=1;jettySize=auto;html=1;rounded=0;exitX=0.732;exitY=1.029;exitDx=0;exitDy=0;exitPerimeter=0;entryX=0.378;entryY=0.989;entryDx=0;entryDy=0;entryPerimeter=0;" edge="1" parent="1" source="lVlV7ATg_BY0pTCaOb4Z-28">
          <mxGeometry width="100" relative="1" as="geometry">
            <mxPoint x="56.5" y="-219" as="sourcePoint" />
            <mxPoint x="1093.6" y="-165.32999999999993" as="targetPoint" />
            <Array as="points">
              <mxPoint x="393.5" y="-149" />
              <mxPoint x="1093.5" y="-149" />
            </Array>
          </mxGeometry>
        </mxCell>
        <mxCell id="lVlV7ATg_BY0pTCaOb4Z-115" value="&lt;font style=&quot;font-size: 10px;&quot;&gt;Profile Updates&lt;/font&gt;" style="text;html=1;align=center;verticalAlign=middle;resizable=0;points=[];autosize=1;strokeColor=none;fillColor=none;" vertex="1" parent="1">
          <mxGeometry x="1003.5" y="-156" width="90" height="30" as="geometry" />
        </mxCell>
        <mxCell id="GmTE9DNldzAbSHP-Ijed-8" value="" style="edgeStyle=none;orthogonalLoop=1;jettySize=auto;html=1;rounded=0;exitX=0;exitY=0.5;exitDx=0;exitDy=0;entryX=0.5;entryY=0;entryDx=0;entryDy=0;" edge="1" parent="1" source="lVlV7ATg_BY0pTCaOb4Z-11" target="lVlV7ATg_BY0pTCaOb4Z-19">
          <mxGeometry width="100" relative="1" as="geometry">
            <mxPoint x="80" y="730" as="sourcePoint" />
            <mxPoint x="180" y="730" as="targetPoint" />
            <Array as="points">
              <mxPoint x="110" y="670" />
            </Array>
          </mxGeometry>
        </mxCell>
        <mxCell id="GmTE9DNldzAbSHP-Ijed-9" value="Appointment Requests" style="text;html=1;align=center;verticalAlign=middle;resizable=0;points=[];autosize=1;strokeColor=none;fillColor=none;" vertex="1" parent="1">
          <mxGeometry x="154" y="644" width="140" height="30" as="geometry" />
        </mxCell>
        <mxCell id="GmTE9DNldzAbSHP-Ijed-15" value="" style="edgeStyle=none;orthogonalLoop=1;jettySize=auto;html=1;rounded=0;exitX=0.5;exitY=0;exitDx=0;exitDy=0;entryX=0.498;entryY=1.044;entryDx=0;entryDy=0;entryPerimeter=0;" edge="1" parent="1" source="lVlV7ATg_BY0pTCaOb4Z-10" target="lVlV7ATg_BY0pTCaOb4Z-64">
          <mxGeometry width="100" relative="1" as="geometry">
            <mxPoint x="330" y="1110" as="sourcePoint" />
            <mxPoint x="430" y="1110" as="targetPoint" />
            <Array as="points" />
          </mxGeometry>
        </mxCell>
        <mxCell id="GmTE9DNldzAbSHP-Ijed-16" value="Provider Info" style="text;html=1;align=center;verticalAlign=middle;resizable=0;points=[];autosize=1;strokeColor=none;fillColor=none;rotation=-90;" vertex="1" parent="1">
          <mxGeometry x="330" y="1105" width="90" height="30" as="geometry" />
        </mxCell>
        <mxCell id="GmTE9DNldzAbSHP-Ijed-17" value="" style="edgeStyle=none;orthogonalLoop=1;jettySize=auto;html=1;rounded=0;exitX=0;exitY=0.5;exitDx=0;exitDy=0;entryX=0.487;entryY=1.019;entryDx=0;entryDy=0;entryPerimeter=0;" edge="1" parent="1" source="lVlV7ATg_BY0pTCaOb4Z-10" target="lVlV7ATg_BY0pTCaOb4Z-34">
          <mxGeometry width="100" relative="1" as="geometry">
            <mxPoint x="60" y="1160" as="sourcePoint" />
            <mxPoint x="160" y="1160" as="targetPoint" />
            <Array as="points">
              <mxPoint x="108" y="1260" />
            </Array>
          </mxGeometry>
        </mxCell>
        <mxCell id="GmTE9DNldzAbSHP-Ijed-18" value="Appointment Updates" style="text;html=1;align=center;verticalAlign=middle;resizable=0;points=[];autosize=1;strokeColor=none;fillColor=none;" vertex="1" parent="1">
          <mxGeometry x="167" y="1235" width="140" height="30" as="geometry" />
        </mxCell>
        <mxCell id="GmTE9DNldzAbSHP-Ijed-19" value="" style="edgeStyle=none;orthogonalLoop=1;jettySize=auto;html=1;rounded=0;exitX=1;exitY=0.25;exitDx=0;exitDy=0;entryX=0.507;entryY=1.043;entryDx=0;entryDy=0;entryPerimeter=0;" edge="1" parent="1" source="lVlV7ATg_BY0pTCaOb4Z-10" target="lVlV7ATg_BY0pTCaOb4Z-31">
          <mxGeometry width="100" relative="1" as="geometry">
            <mxPoint x="520" y="1090" as="sourcePoint" />
            <mxPoint x="620" y="1090" as="targetPoint" />
            <Array as="points">
              <mxPoint x="895" y="1250" />
            </Array>
          </mxGeometry>
        </mxCell>
        <mxCell id="GmTE9DNldzAbSHP-Ijed-20" value="Prescription Info" style="text;html=1;align=center;verticalAlign=middle;resizable=0;points=[];autosize=1;strokeColor=none;fillColor=none;" vertex="1" parent="1">
          <mxGeometry x="635" y="1226" width="110" height="30" as="geometry" />
        </mxCell>
        <mxCell id="GmTE9DNldzAbSHP-Ijed-21" value="" style="edgeStyle=none;orthogonalLoop=1;jettySize=auto;html=1;rounded=0;entryX=0.513;entryY=1.019;entryDx=0;entryDy=0;entryPerimeter=0;exitX=0.25;exitY=1;exitDx=0;exitDy=0;" edge="1" parent="1" source="lVlV7ATg_BY0pTCaOb4Z-10" target="lVlV7ATg_BY0pTCaOb4Z-39">
          <mxGeometry width="100" relative="1" as="geometry">
            <mxPoint x="-170" y="1130" as="sourcePoint" />
            <mxPoint x="-70" y="1130" as="targetPoint" />
            <Array as="points">
              <mxPoint x="365" y="1360" />
              <mxPoint x="100" y="1360" />
              <mxPoint x="-152" y="1360" />
            </Array>
          </mxGeometry>
        </mxCell>
        <mxCell id="GmTE9DNldzAbSHP-Ijed-22" value="Collaboration Requests" style="text;html=1;align=center;verticalAlign=middle;resizable=0;points=[];autosize=1;strokeColor=none;fillColor=none;" vertex="1" parent="1">
          <mxGeometry x="5" y="1329" width="150" height="30" as="geometry" />
        </mxCell>
        <mxCell id="GmTE9DNldzAbSHP-Ijed-25" value="" style="edgeStyle=none;orthogonalLoop=1;jettySize=auto;html=1;rounded=0;entryX=0.5;entryY=0;entryDx=0;entryDy=0;exitX=0.75;exitY=1;exitDx=0;exitDy=0;" edge="1" parent="1" source="lVlV7ATg_BY0pTCaOb4Z-9" target="lVlV7ATg_BY0pTCaOb4Z-13">
          <mxGeometry width="100" relative="1" as="geometry">
            <mxPoint x="650" y="700" as="sourcePoint" />
            <mxPoint x="810" y="730" as="targetPoint" />
            <Array as="points">
              <mxPoint x="650" y="730" />
              <mxPoint x="650" y="760" />
            </Array>
          </mxGeometry>
        </mxCell>
        <mxCell id="GmTE9DNldzAbSHP-Ijed-26" value="Permission Changes" style="text;html=1;align=center;verticalAlign=middle;resizable=0;points=[];autosize=1;strokeColor=none;fillColor=none;rotation=270;" vertex="1" parent="1">
          <mxGeometry x="534" y="770" width="130" height="30" as="geometry" />
        </mxCell>
        <mxCell id="GmTE9DNldzAbSHP-Ijed-27" value="Profile Updates" style="text;html=1;align=center;verticalAlign=middle;resizable=0;points=[];autosize=1;strokeColor=none;fillColor=none;rotation=90;" vertex="1" parent="1">
          <mxGeometry x="375" y="775" width="110" height="30" as="geometry" />
        </mxCell>
        <mxCell id="GmTE9DNldzAbSHP-Ijed-30" value="" style="edgeStyle=none;orthogonalLoop=1;jettySize=auto;html=1;rounded=0;exitX=0.655;exitY=0.004;exitDx=0;exitDy=0;exitPerimeter=0;entryX=0.75;entryY=1;entryDx=0;entryDy=0;" edge="1" parent="1" source="lVlV7ATg_BY0pTCaOb4Z-25" target="lVlV7ATg_BY0pTCaOb4Z-11">
          <mxGeometry width="100" relative="1" as="geometry">
            <mxPoint x="400" y="830" as="sourcePoint" />
            <mxPoint x="500" y="830" as="targetPoint" />
            <Array as="points" />
          </mxGeometry>
        </mxCell>
        <mxCell id="GmTE9DNldzAbSHP-Ijed-31" value="" style="edgeStyle=none;orthogonalLoop=1;jettySize=auto;html=1;rounded=0;exitX=0.633;exitY=1.025;exitDx=0;exitDy=0;entryX=0.498;entryY=1.067;entryDx=0;entryDy=0;entryPerimeter=0;exitPerimeter=0;" edge="1" parent="1" source="lVlV7ATg_BY0pTCaOb4Z-64">
          <mxGeometry width="100" relative="1" as="geometry">
            <mxPoint x="411.5" y="1005" as="sourcePoint" />
            <mxPoint x="411.5" y="1240" as="targetPoint" />
            <Array as="points" />
          </mxGeometry>
        </mxCell>
        <mxCell id="GmTE9DNldzAbSHP-Ijed-32" value="Profile Updates" style="text;html=1;align=center;verticalAlign=middle;resizable=0;points=[];autosize=1;strokeColor=none;fillColor=none;rotation=90;" vertex="1" parent="1">
          <mxGeometry x="371" y="1100" width="110" height="30" as="geometry" />
        </mxCell>
        <mxCell id="GmTE9DNldzAbSHP-Ijed-33" value="" style="edgeStyle=none;orthogonalLoop=1;jettySize=auto;html=1;rounded=0;" edge="1" parent="1">
          <mxGeometry width="100" relative="1" as="geometry">
            <mxPoint x="120" y="880" as="sourcePoint" />
            <mxPoint x="340" y="680" as="targetPoint" />
            <Array as="points">
              <mxPoint x="120" y="720" />
              <mxPoint x="280" y="720" />
              <mxPoint x="280" y="680" />
            </Array>
          </mxGeometry>
        </mxCell>
        <mxCell id="GmTE9DNldzAbSHP-Ijed-34" value="Appointment Confirmations" style="text;html=1;align=center;verticalAlign=middle;resizable=0;points=[];autosize=1;strokeColor=none;fillColor=none;" vertex="1" parent="1">
          <mxGeometry x="114" y="695" width="170" height="30" as="geometry" />
        </mxCell>
        <mxCell id="GmTE9DNldzAbSHP-Ijed-35" value="" style="edgeStyle=none;orthogonalLoop=1;jettySize=auto;html=1;rounded=0;exitX=0.697;exitY=1;exitDx=0;exitDy=0;exitPerimeter=0;entryX=0;entryY=1;entryDx=0;entryDy=0;" edge="1" parent="1" source="lVlV7ATg_BY0pTCaOb4Z-34" target="lVlV7ATg_BY0pTCaOb4Z-10">
          <mxGeometry width="100" relative="1" as="geometry">
            <mxPoint x="90" y="1120" as="sourcePoint" />
            <mxPoint x="190" y="1120" as="targetPoint" />
            <Array as="points">
              <mxPoint x="140" y="1280" />
            </Array>
          </mxGeometry>
        </mxCell>
        <mxCell id="GmTE9DNldzAbSHP-Ijed-36" value="Appointment Notifications" style="text;html=1;align=center;verticalAlign=middle;resizable=0;points=[];autosize=1;strokeColor=none;fillColor=none;" vertex="1" parent="1">
          <mxGeometry x="156" y="1257" width="160" height="30" as="geometry" />
        </mxCell>
        <mxCell id="GmTE9DNldzAbSHP-Ijed-37" value="" style="edgeStyle=none;orthogonalLoop=1;jettySize=auto;html=1;rounded=0;exitX=0.247;exitY=1.019;exitDx=0;exitDy=0;exitPerimeter=0;entryX=1;entryY=1;entryDx=0;entryDy=0;" edge="1" parent="1" source="lVlV7ATg_BY0pTCaOb4Z-31" target="lVlV7ATg_BY0pTCaOb4Z-10">
          <mxGeometry width="100" relative="1" as="geometry">
            <mxPoint x="660" y="1100" as="sourcePoint" />
            <mxPoint x="760" y="1100" as="targetPoint" />
            <Array as="points">
              <mxPoint x="853" y="1280" />
            </Array>
          </mxGeometry>
        </mxCell>
        <mxCell id="GmTE9DNldzAbSHP-Ijed-38" value="Prescription Updates" style="text;html=1;align=center;verticalAlign=middle;resizable=0;points=[];autosize=1;strokeColor=none;fillColor=none;" vertex="1" parent="1">
          <mxGeometry x="624" y="1255" width="130" height="30" as="geometry" />
        </mxCell>
        <mxCell id="GmTE9DNldzAbSHP-Ijed-39" value="" style="edgeStyle=none;orthogonalLoop=1;jettySize=auto;html=1;rounded=0;exitX=0.75;exitY=1;exitDx=0;exitDy=0;entryX=0.5;entryY=1;entryDx=0;entryDy=0;" edge="1" parent="1" source="lVlV7ATg_BY0pTCaOb4Z-15" target="lVlV7ATg_BY0pTCaOb4Z-10">
          <mxGeometry width="100" relative="1" as="geometry">
            <mxPoint x="-130" y="1080" as="sourcePoint" />
            <mxPoint x="-30" y="1080" as="targetPoint" />
            <Array as="points">
              <mxPoint x="-114" y="1320" />
              <mxPoint x="390" y="1320" />
            </Array>
          </mxGeometry>
        </mxCell>
        <mxCell id="GmTE9DNldzAbSHP-Ijed-40" value="Collaboration Results" style="text;html=1;align=center;verticalAlign=middle;resizable=0;points=[];autosize=1;strokeColor=none;fillColor=none;" vertex="1" parent="1">
          <mxGeometry x="10" y="1290" width="140" height="30" as="geometry" />
        </mxCell>
        <mxCell id="GmTE9DNldzAbSHP-Ijed-41" value="" style="edgeStyle=none;orthogonalLoop=1;jettySize=auto;html=1;rounded=0;entryX=0.25;entryY=0;entryDx=0;entryDy=0;exitX=0.342;exitY=0.999;exitDx=0;exitDy=0;exitPerimeter=0;" edge="1" parent="1" source="lVlV7ATg_BY0pTCaOb4Z-9" target="lVlV7ATg_BY0pTCaOb4Z-13">
          <mxGeometry width="100" relative="1" as="geometry">
            <mxPoint x="610" y="700" as="sourcePoint" />
            <mxPoint x="790" y="810" as="targetPoint" />
            <Array as="points">
              <mxPoint x="610" y="750" />
              <mxPoint x="610" y="820" />
            </Array>
          </mxGeometry>
        </mxCell>
        <mxCell id="GmTE9DNldzAbSHP-Ijed-42" value="Permission Updates" style="text;html=1;align=center;verticalAlign=middle;resizable=0;points=[];autosize=1;strokeColor=none;fillColor=none;rotation=90;" vertex="1" parent="1">
          <mxGeometry x="597.5" y="770" width="130" height="30" as="geometry" />
        </mxCell>
      </root>
    </mxGraphModel>
  </diagram>
  <diagram id="uB51Qmd3SpDq-J-Rk33d" name="Page-6">
    <mxGraphModel dx="2664" dy="2077" grid="1" gridSize="10" guides="1" tooltips="1" connect="1" arrows="1" fold="1" page="1" pageScale="1" pageWidth="827" pageHeight="1169" math="0" shadow="0">
      <root>
        <mxCell id="0" />
        <mxCell id="1" parent="0" />
        <mxCell id="sGEJf37hC6OI04Kvr8QX-1" value="Healthcare Provider Administrator" style="rounded=1;arcSize=10;whiteSpace=wrap;html=1;align=center;" vertex="1" parent="1">
          <mxGeometry x="727" y="1080" width="100" height="50" as="geometry" />
        </mxCell>
        <mxCell id="sGEJf37hC6OI04Kvr8QX-2" value="Healthcare Provider" style="rounded=1;arcSize=10;whiteSpace=wrap;html=1;align=center;" vertex="1" parent="1">
          <mxGeometry x="340" y="1670" width="100" height="40" as="geometry" />
        </mxCell>
        <mxCell id="sGEJf37hC6OI04Kvr8QX-3" value="5.0" style="swimlane;childLayout=stackLayout;horizontal=1;startSize=50;horizontalStack=0;rounded=1;fontSize=14;fontStyle=0;strokeWidth=2;resizeParent=0;resizeLast=1;shadow=0;dashed=0;align=center;arcSize=4;whiteSpace=wrap;html=1;" vertex="1" parent="1">
          <mxGeometry x="569.5" y="1310" width="160" height="120" as="geometry" />
        </mxCell>
        <mxCell id="sGEJf37hC6OI04Kvr8QX-4" value="&lt;font style=&quot;font-size: 14px;&quot;&gt;Notification &lt;br&gt;Management&lt;/font&gt;" style="text;html=1;align=center;verticalAlign=middle;resizable=0;points=[];autosize=1;strokeColor=none;fillColor=none;" vertex="1" parent="sGEJf37hC6OI04Kvr8QX-3">
          <mxGeometry y="50" width="160" height="70" as="geometry" />
        </mxCell>
        <mxCell id="sGEJf37hC6OI04Kvr8QX-5" value="4.0" style="swimlane;childLayout=stackLayout;horizontal=1;startSize=50;horizontalStack=0;rounded=1;fontSize=14;fontStyle=0;strokeWidth=2;resizeParent=0;resizeLast=1;shadow=0;dashed=0;align=center;arcSize=4;whiteSpace=wrap;html=1;" vertex="1" parent="1">
          <mxGeometry x="30" y="1310" width="160" height="120" as="geometry" />
        </mxCell>
        <mxCell id="sGEJf37hC6OI04Kvr8QX-6" value="&lt;font style=&quot;font-size: 14px;&quot;&gt;Appointment &lt;br&gt;Management&lt;/font&gt;" style="text;html=1;align=center;verticalAlign=middle;resizable=0;points=[];autosize=1;strokeColor=none;fillColor=none;" vertex="1" parent="sGEJf37hC6OI04Kvr8QX-5">
          <mxGeometry y="50" width="160" height="70" as="geometry" />
        </mxCell>
        <mxCell id="sGEJf37hC6OI04Kvr8QX-7" value="1.0" style="swimlane;childLayout=stackLayout;horizontal=1;startSize=50;horizontalStack=0;rounded=1;fontSize=14;fontStyle=0;strokeWidth=2;resizeParent=0;resizeLast=1;shadow=0;dashed=0;align=center;arcSize=4;whiteSpace=wrap;html=1;" vertex="1" parent="1">
          <mxGeometry x="310" y="1310" width="160" height="120" as="geometry" />
        </mxCell>
        <mxCell id="sGEJf37hC6OI04Kvr8QX-8" value="&lt;font style=&quot;font-size: 14px;&quot;&gt;Registration &amp;amp; &lt;br&gt;Profile Management&lt;/font&gt;" style="text;html=1;align=center;verticalAlign=middle;resizable=0;points=[];autosize=1;strokeColor=none;fillColor=none;container=1;" vertex="1" parent="sGEJf37hC6OI04Kvr8QX-7">
          <mxGeometry y="50" width="160" height="70" as="geometry" />
        </mxCell>
        <mxCell id="sGEJf37hC6OI04Kvr8QX-9" value="2.0" style="swimlane;childLayout=stackLayout;horizontal=1;startSize=50;horizontalStack=0;rounded=1;fontSize=14;fontStyle=0;strokeWidth=2;resizeParent=0;resizeLast=1;shadow=0;dashed=0;align=center;arcSize=4;whiteSpace=wrap;html=1;container=0;" vertex="1" parent="1">
          <mxGeometry x="813.5" y="1310" width="160" height="120" as="geometry" />
        </mxCell>
        <mxCell id="sGEJf37hC6OI04Kvr8QX-10" value="&lt;font style=&quot;font-size: 14px;&quot;&gt;Prescription &lt;br&gt;Management&lt;/font&gt;" style="text;html=1;align=center;verticalAlign=middle;resizable=0;points=[];autosize=1;strokeColor=none;fillColor=none;container=1;" vertex="1" parent="sGEJf37hC6OI04Kvr8QX-9">
          <mxGeometry y="50" width="160" height="70" as="geometry" />
        </mxCell>
        <mxCell id="sGEJf37hC6OI04Kvr8QX-11" value="" style="edgeStyle=none;orthogonalLoop=1;jettySize=auto;html=1;rounded=0;exitX=0.5;exitY=1;exitDx=0;exitDy=0;entryX=0.5;entryY=0;entryDx=0;entryDy=0;" edge="1" parent="1" source="sGEJf37hC6OI04Kvr8QX-13" target="sGEJf37hC6OI04Kvr8QX-7">
          <mxGeometry width="100" relative="1" as="geometry">
            <mxPoint x="40" y="1240" as="sourcePoint" />
            <mxPoint x="160" y="1240" as="targetPoint" />
            <Array as="points">
              <mxPoint x="390" y="1150" />
            </Array>
          </mxGeometry>
        </mxCell>
        <mxCell id="sGEJf37hC6OI04Kvr8QX-12" value="Patient Info" style="text;html=1;align=center;verticalAlign=middle;resizable=0;points=[];autosize=1;strokeColor=none;fillColor=none;flipH=1;flipV=1;rotation=-90;" vertex="1" parent="1">
          <mxGeometry x="335" y="1200" width="80" height="30" as="geometry" />
        </mxCell>
        <mxCell id="sGEJf37hC6OI04Kvr8QX-13" value="Patient" style="rounded=1;arcSize=10;whiteSpace=wrap;html=1;align=center;" vertex="1" parent="1">
          <mxGeometry x="340" y="1080" width="100" height="40" as="geometry" />
        </mxCell>
        <mxCell id="sGEJf37hC6OI04Kvr8QX-14" value="" style="edgeStyle=none;orthogonalLoop=1;jettySize=auto;html=1;rounded=0;exitX=0;exitY=0.5;exitDx=0;exitDy=0;entryX=0.5;entryY=0;entryDx=0;entryDy=0;" edge="1" parent="1" source="sGEJf37hC6OI04Kvr8QX-13" target="sGEJf37hC6OI04Kvr8QX-5">
          <mxGeometry width="100" relative="1" as="geometry">
            <mxPoint x="80" y="1160" as="sourcePoint" />
            <mxPoint x="180" y="1160" as="targetPoint" />
            <Array as="points">
              <mxPoint x="110" y="1100" />
            </Array>
          </mxGeometry>
        </mxCell>
        <mxCell id="sGEJf37hC6OI04Kvr8QX-15" value="Appointment Requests" style="text;html=1;align=center;verticalAlign=middle;resizable=0;points=[];autosize=1;strokeColor=none;fillColor=none;" vertex="1" parent="1">
          <mxGeometry x="154" y="1074" width="140" height="30" as="geometry" />
        </mxCell>
        <mxCell id="sGEJf37hC6OI04Kvr8QX-16" value="" style="edgeStyle=none;orthogonalLoop=1;jettySize=auto;html=1;rounded=0;exitX=0.5;exitY=0;exitDx=0;exitDy=0;entryX=1;entryY=0.5;entryDx=0;entryDy=0;" edge="1" parent="1" source="sGEJf37hC6OI04Kvr8QX-3" target="sGEJf37hC6OI04Kvr8QX-13">
          <mxGeometry width="100" relative="1" as="geometry">
            <mxPoint x="480" y="1130" as="sourcePoint" />
            <mxPoint x="580" y="1130" as="targetPoint" />
            <Array as="points">
              <mxPoint x="650" y="1100" />
            </Array>
          </mxGeometry>
        </mxCell>
        <mxCell id="sGEJf37hC6OI04Kvr8QX-17" value="Notifications" style="text;html=1;align=center;verticalAlign=middle;resizable=0;points=[];autosize=1;strokeColor=none;fillColor=none;" vertex="1" parent="1">
          <mxGeometry x="495" y="1075" width="90" height="30" as="geometry" />
        </mxCell>
        <mxCell id="sGEJf37hC6OI04Kvr8QX-18" value="" style="edgeStyle=none;orthogonalLoop=1;jettySize=auto;html=1;rounded=0;exitX=0.5;exitY=0;exitDx=0;exitDy=0;entryX=0.498;entryY=1.044;entryDx=0;entryDy=0;entryPerimeter=0;" edge="1" parent="1" source="sGEJf37hC6OI04Kvr8QX-2" target="sGEJf37hC6OI04Kvr8QX-8">
          <mxGeometry width="100" relative="1" as="geometry">
            <mxPoint x="330" y="1540" as="sourcePoint" />
            <mxPoint x="430" y="1540" as="targetPoint" />
            <Array as="points" />
          </mxGeometry>
        </mxCell>
        <mxCell id="sGEJf37hC6OI04Kvr8QX-19" value="Provider Info" style="text;html=1;align=center;verticalAlign=middle;resizable=0;points=[];autosize=1;strokeColor=none;fillColor=none;rotation=-90;" vertex="1" parent="1">
          <mxGeometry x="330" y="1535" width="90" height="30" as="geometry" />
        </mxCell>
        <mxCell id="sGEJf37hC6OI04Kvr8QX-20" value="" style="edgeStyle=none;orthogonalLoop=1;jettySize=auto;html=1;rounded=0;exitX=0;exitY=0.5;exitDx=0;exitDy=0;entryX=0.487;entryY=1.019;entryDx=0;entryDy=0;entryPerimeter=0;" edge="1" parent="1" source="sGEJf37hC6OI04Kvr8QX-2" target="sGEJf37hC6OI04Kvr8QX-6">
          <mxGeometry width="100" relative="1" as="geometry">
            <mxPoint x="60" y="1590" as="sourcePoint" />
            <mxPoint x="160" y="1590" as="targetPoint" />
            <Array as="points">
              <mxPoint x="108" y="1690" />
            </Array>
          </mxGeometry>
        </mxCell>
        <mxCell id="sGEJf37hC6OI04Kvr8QX-21" value="Appointment Updates" style="text;html=1;align=center;verticalAlign=middle;resizable=0;points=[];autosize=1;strokeColor=none;fillColor=none;" vertex="1" parent="1">
          <mxGeometry x="167" y="1665" width="140" height="30" as="geometry" />
        </mxCell>
        <mxCell id="sGEJf37hC6OI04Kvr8QX-22" value="" style="edgeStyle=none;orthogonalLoop=1;jettySize=auto;html=1;rounded=0;exitX=1;exitY=0.25;exitDx=0;exitDy=0;entryX=0.507;entryY=1.043;entryDx=0;entryDy=0;entryPerimeter=0;" edge="1" parent="1" source="sGEJf37hC6OI04Kvr8QX-2" target="sGEJf37hC6OI04Kvr8QX-10">
          <mxGeometry width="100" relative="1" as="geometry">
            <mxPoint x="520" y="1520" as="sourcePoint" />
            <mxPoint x="620" y="1520" as="targetPoint" />
            <Array as="points">
              <mxPoint x="895" y="1680" />
            </Array>
          </mxGeometry>
        </mxCell>
        <mxCell id="sGEJf37hC6OI04Kvr8QX-23" value="Prescription Info" style="text;html=1;align=center;verticalAlign=middle;resizable=0;points=[];autosize=1;strokeColor=none;fillColor=none;" vertex="1" parent="1">
          <mxGeometry x="635" y="1656" width="110" height="30" as="geometry" />
        </mxCell>
        <mxCell id="sGEJf37hC6OI04Kvr8QX-24" value="" style="edgeStyle=none;orthogonalLoop=1;jettySize=auto;html=1;rounded=0;entryX=0.513;entryY=1.019;entryDx=0;entryDy=0;entryPerimeter=0;exitX=0.25;exitY=1;exitDx=0;exitDy=0;" edge="1" parent="1" source="sGEJf37hC6OI04Kvr8QX-2">
          <mxGeometry width="100" relative="1" as="geometry">
            <mxPoint x="-170" y="1560" as="sourcePoint" />
            <mxPoint x="-152" y="1431" as="targetPoint" />
            <Array as="points">
              <mxPoint x="365" y="1790" />
              <mxPoint x="100" y="1790" />
              <mxPoint x="-152" y="1790" />
            </Array>
          </mxGeometry>
        </mxCell>
        <mxCell id="sGEJf37hC6OI04Kvr8QX-25" value="Collaboration Requests" style="text;html=1;align=center;verticalAlign=middle;resizable=0;points=[];autosize=1;strokeColor=none;fillColor=none;" vertex="1" parent="1">
          <mxGeometry x="5" y="1759" width="150" height="30" as="geometry" />
        </mxCell>
        <mxCell id="sGEJf37hC6OI04Kvr8QX-26" value="" style="edgeStyle=none;orthogonalLoop=1;jettySize=auto;html=1;rounded=0;exitX=0.173;exitY=1.049;exitDx=0;exitDy=0;exitPerimeter=0;entryX=0.75;entryY=1;entryDx=0;entryDy=0;" edge="1" parent="1" source="sGEJf37hC6OI04Kvr8QX-4" target="sGEJf37hC6OI04Kvr8QX-2">
          <mxGeometry width="100" relative="1" as="geometry">
            <mxPoint x="400" y="1740" as="sourcePoint" />
            <mxPoint x="500" y="1740" as="targetPoint" />
            <Array as="points">
              <mxPoint x="597" y="1790" />
              <mxPoint x="415" y="1790" />
            </Array>
          </mxGeometry>
        </mxCell>
        <mxCell id="sGEJf37hC6OI04Kvr8QX-27" value="Notifications" style="text;html=1;align=center;verticalAlign=middle;resizable=0;points=[];autosize=1;strokeColor=none;fillColor=none;" vertex="1" parent="1">
          <mxGeometry x="455" y="1760" width="90" height="30" as="geometry" />
        </mxCell>
        <mxCell id="sGEJf37hC6OI04Kvr8QX-28" value="" style="edgeStyle=none;orthogonalLoop=1;jettySize=auto;html=1;rounded=0;entryX=0.5;entryY=0;entryDx=0;entryDy=0;exitX=0.5;exitY=1;exitDx=0;exitDy=0;" edge="1" parent="1" source="sGEJf37hC6OI04Kvr8QX-1">
          <mxGeometry width="100" relative="1" as="geometry">
            <mxPoint x="710" y="1160" as="sourcePoint" />
            <mxPoint x="1146" y="1310" as="targetPoint" />
            <Array as="points">
              <mxPoint x="777" y="1190" />
              <mxPoint x="1146" y="1190" />
            </Array>
          </mxGeometry>
        </mxCell>
        <mxCell id="sGEJf37hC6OI04Kvr8QX-29" value="Permission Changes" style="text;html=1;align=center;verticalAlign=middle;resizable=0;points=[];autosize=1;strokeColor=none;fillColor=none;" vertex="1" parent="1">
          <mxGeometry x="907" y="1159" width="130" height="30" as="geometry" />
        </mxCell>
        <mxCell id="sGEJf37hC6OI04Kvr8QX-30" value="Profile Updates" style="text;html=1;align=center;verticalAlign=middle;resizable=0;points=[];autosize=1;strokeColor=none;fillColor=none;rotation=90;" vertex="1" parent="1">
          <mxGeometry x="375" y="1205" width="110" height="30" as="geometry" />
        </mxCell>
        <mxCell id="sGEJf37hC6OI04Kvr8QX-31" value="" style="edgeStyle=none;orthogonalLoop=1;jettySize=auto;html=1;rounded=0;exitX=0.655;exitY=0.004;exitDx=0;exitDy=0;exitPerimeter=0;entryX=0.75;entryY=1;entryDx=0;entryDy=0;" edge="1" parent="1" source="sGEJf37hC6OI04Kvr8QX-7" target="sGEJf37hC6OI04Kvr8QX-13">
          <mxGeometry width="100" relative="1" as="geometry">
            <mxPoint x="400" y="1260" as="sourcePoint" />
            <mxPoint x="500" y="1260" as="targetPoint" />
            <Array as="points" />
          </mxGeometry>
        </mxCell>
        <mxCell id="sGEJf37hC6OI04Kvr8QX-32" value="" style="edgeStyle=none;orthogonalLoop=1;jettySize=auto;html=1;rounded=0;exitX=0.633;exitY=1.025;exitDx=0;exitDy=0;entryX=0.498;entryY=1.067;entryDx=0;entryDy=0;entryPerimeter=0;exitPerimeter=0;" edge="1" parent="1" source="sGEJf37hC6OI04Kvr8QX-8">
          <mxGeometry width="100" relative="1" as="geometry">
            <mxPoint x="411.5" y="1435" as="sourcePoint" />
            <mxPoint x="411.5" y="1670" as="targetPoint" />
            <Array as="points" />
          </mxGeometry>
        </mxCell>
        <mxCell id="sGEJf37hC6OI04Kvr8QX-33" value="Profile Updates" style="text;html=1;align=center;verticalAlign=middle;resizable=0;points=[];autosize=1;strokeColor=none;fillColor=none;rotation=90;" vertex="1" parent="1">
          <mxGeometry x="371" y="1530" width="110" height="30" as="geometry" />
        </mxCell>
        <mxCell id="sGEJf37hC6OI04Kvr8QX-34" value="" style="edgeStyle=none;orthogonalLoop=1;jettySize=auto;html=1;rounded=0;" edge="1" parent="1">
          <mxGeometry width="100" relative="1" as="geometry">
            <mxPoint x="120" y="1310" as="sourcePoint" />
            <mxPoint x="340" y="1110" as="targetPoint" />
            <Array as="points">
              <mxPoint x="120" y="1150" />
              <mxPoint x="280" y="1150" />
              <mxPoint x="280" y="1110" />
            </Array>
          </mxGeometry>
        </mxCell>
        <mxCell id="sGEJf37hC6OI04Kvr8QX-35" value="Appointment Confirmations" style="text;html=1;align=center;verticalAlign=middle;resizable=0;points=[];autosize=1;strokeColor=none;fillColor=none;" vertex="1" parent="1">
          <mxGeometry x="114" y="1125" width="170" height="30" as="geometry" />
        </mxCell>
        <mxCell id="sGEJf37hC6OI04Kvr8QX-36" value="" style="edgeStyle=none;orthogonalLoop=1;jettySize=auto;html=1;rounded=0;exitX=0.697;exitY=1;exitDx=0;exitDy=0;exitPerimeter=0;entryX=0;entryY=1;entryDx=0;entryDy=0;" edge="1" parent="1" source="sGEJf37hC6OI04Kvr8QX-6" target="sGEJf37hC6OI04Kvr8QX-2">
          <mxGeometry width="100" relative="1" as="geometry">
            <mxPoint x="90" y="1550" as="sourcePoint" />
            <mxPoint x="190" y="1550" as="targetPoint" />
            <Array as="points">
              <mxPoint x="140" y="1710" />
            </Array>
          </mxGeometry>
        </mxCell>
        <mxCell id="sGEJf37hC6OI04Kvr8QX-37" value="Appointment Notifications" style="text;html=1;align=center;verticalAlign=middle;resizable=0;points=[];autosize=1;strokeColor=none;fillColor=none;" vertex="1" parent="1">
          <mxGeometry x="156" y="1687" width="160" height="30" as="geometry" />
        </mxCell>
        <mxCell id="sGEJf37hC6OI04Kvr8QX-38" value="" style="edgeStyle=none;orthogonalLoop=1;jettySize=auto;html=1;rounded=0;exitX=0.247;exitY=1.019;exitDx=0;exitDy=0;exitPerimeter=0;entryX=1;entryY=1;entryDx=0;entryDy=0;" edge="1" parent="1" source="sGEJf37hC6OI04Kvr8QX-10" target="sGEJf37hC6OI04Kvr8QX-2">
          <mxGeometry width="100" relative="1" as="geometry">
            <mxPoint x="660" y="1530" as="sourcePoint" />
            <mxPoint x="760" y="1530" as="targetPoint" />
            <Array as="points">
              <mxPoint x="853" y="1710" />
            </Array>
          </mxGeometry>
        </mxCell>
        <mxCell id="sGEJf37hC6OI04Kvr8QX-39" value="Prescription Updates" style="text;html=1;align=center;verticalAlign=middle;resizable=0;points=[];autosize=1;strokeColor=none;fillColor=none;" vertex="1" parent="1">
          <mxGeometry x="624" y="1685" width="130" height="30" as="geometry" />
        </mxCell>
        <mxCell id="sGEJf37hC6OI04Kvr8QX-40" value="" style="edgeStyle=none;orthogonalLoop=1;jettySize=auto;html=1;rounded=0;exitX=0.75;exitY=1;exitDx=0;exitDy=0;entryX=0.5;entryY=1;entryDx=0;entryDy=0;" edge="1" parent="1" target="sGEJf37hC6OI04Kvr8QX-2">
          <mxGeometry width="100" relative="1" as="geometry">
            <mxPoint x="-114" y="1430" as="sourcePoint" />
            <mxPoint x="-30" y="1510" as="targetPoint" />
            <Array as="points">
              <mxPoint x="-114" y="1750" />
              <mxPoint x="390" y="1750" />
            </Array>
          </mxGeometry>
        </mxCell>
        <mxCell id="sGEJf37hC6OI04Kvr8QX-41" value="Collaboration Results" style="text;html=1;align=center;verticalAlign=middle;resizable=0;points=[];autosize=1;strokeColor=none;fillColor=none;" vertex="1" parent="1">
          <mxGeometry x="10" y="1720" width="140" height="30" as="geometry" />
        </mxCell>
        <mxCell id="sGEJf37hC6OI04Kvr8QX-42" value="" style="edgeStyle=none;orthogonalLoop=1;jettySize=auto;html=1;rounded=0;exitX=0.75;exitY=1;exitDx=0;exitDy=0;entryX=0.25;entryY=0;entryDx=0;entryDy=0;" edge="1" parent="1" source="sGEJf37hC6OI04Kvr8QX-1">
          <mxGeometry width="100" relative="1" as="geometry">
            <mxPoint x="690" y="1240" as="sourcePoint" />
            <mxPoint x="1106" y="1310" as="targetPoint" />
            <Array as="points">
              <mxPoint x="800" y="1250" />
              <mxPoint x="1106" y="1250" />
            </Array>
          </mxGeometry>
        </mxCell>
        <mxCell id="sGEJf37hC6OI04Kvr8QX-43" value="Permission Updates" style="text;html=1;align=center;verticalAlign=middle;resizable=0;points=[];autosize=1;strokeColor=none;fillColor=none;" vertex="1" parent="1">
          <mxGeometry x="911" y="1220" width="130" height="30" as="geometry" />
        </mxCell>
        <mxCell id="sGEJf37hC6OI04Kvr8QX-44" value="" style="edgeStyle=none;orthogonalLoop=1;jettySize=auto;html=1;rounded=0;exitX=1;exitY=0.75;exitDx=0;exitDy=0;entryX=0.25;entryY=0;entryDx=0;entryDy=0;" edge="1" parent="1" source="sGEJf37hC6OI04Kvr8QX-13" target="sGEJf37hC6OI04Kvr8QX-3">
          <mxGeometry width="100" relative="1" as="geometry">
            <mxPoint x="500" y="1210" as="sourcePoint" />
            <mxPoint x="600" y="1210" as="targetPoint" />
            <Array as="points">
              <mxPoint x="440" y="1150" />
              <mxPoint x="610" y="1150" />
            </Array>
          </mxGeometry>
        </mxCell>
        <mxCell id="sGEJf37hC6OI04Kvr8QX-45" value="Notifications" style="text;html=1;align=center;verticalAlign=middle;resizable=0;points=[];autosize=1;strokeColor=none;fillColor=none;" vertex="1" parent="1">
          <mxGeometry x="495" y="1122" width="90" height="30" as="geometry" />
        </mxCell>
        <mxCell id="ku4GEsHN9wt1916FRwC2-1" value="6.0" style="swimlane;childLayout=stackLayout;horizontal=1;startSize=50;horizontalStack=0;rounded=1;fontSize=14;fontStyle=0;strokeWidth=2;resizeParent=0;resizeLast=1;shadow=0;dashed=0;align=center;arcSize=4;whiteSpace=wrap;html=1;" vertex="1" parent="1">
          <mxGeometry x="-234" y="1310" width="160" height="120" as="geometry" />
        </mxCell>
        <mxCell id="ku4GEsHN9wt1916FRwC2-2" value="&lt;font style=&quot;font-size: 14px;&quot;&gt;Collaboration &amp;amp; &lt;br&gt;Search&lt;/font&gt;" style="text;html=1;align=center;verticalAlign=middle;resizable=0;points=[];autosize=1;strokeColor=none;fillColor=none;" vertex="1" parent="ku4GEsHN9wt1916FRwC2-1">
          <mxGeometry y="50" width="160" height="70" as="geometry" />
        </mxCell>
        <mxCell id="NoggQKmHAc6IJQ1bwuU6-1" value="7.0" style="swimlane;childLayout=stackLayout;horizontal=1;startSize=50;horizontalStack=0;rounded=1;fontSize=14;fontStyle=0;strokeWidth=2;resizeParent=0;resizeLast=1;shadow=0;dashed=0;align=center;arcSize=4;whiteSpace=wrap;html=1;" vertex="1" parent="1">
          <mxGeometry x="1065.5" y="1310" width="160" height="120" as="geometry" />
        </mxCell>
        <mxCell id="NoggQKmHAc6IJQ1bwuU6-2" value="&lt;font style=&quot;font-size: 14px;&quot;&gt;User Permissions&lt;/font&gt;" style="text;html=1;align=center;verticalAlign=middle;resizable=0;points=[];autosize=1;strokeColor=none;fillColor=none;" vertex="1" parent="NoggQKmHAc6IJQ1bwuU6-1">
          <mxGeometry y="50" width="160" height="70" as="geometry" />
        </mxCell>
        <mxCell id="dv6Ycer3h3GkwvG8xL8Q-1" value="Patient" style="rounded=1;arcSize=10;whiteSpace=wrap;html=1;align=center;" vertex="1" parent="1">
          <mxGeometry x="340" y="-100" width="100" height="40" as="geometry" />
        </mxCell>
        <mxCell id="dv6Ycer3h3GkwvG8xL8Q-2" value="1.1" style="swimlane;childLayout=stackLayout;horizontal=1;startSize=50;horizontalStack=0;rounded=1;fontSize=14;fontStyle=0;strokeWidth=2;resizeParent=0;resizeLast=1;shadow=0;dashed=0;align=center;arcSize=4;whiteSpace=wrap;html=1;" vertex="1" parent="1">
          <mxGeometry x="310" y="200" width="160" height="120" as="geometry" />
        </mxCell>
        <mxCell id="dv6Ycer3h3GkwvG8xL8Q-3" value="Patient Registration" style="text;html=1;align=center;verticalAlign=middle;resizable=0;points=[];autosize=1;strokeColor=none;fillColor=none;container=1;" vertex="1" parent="dv6Ycer3h3GkwvG8xL8Q-2">
          <mxGeometry y="50" width="160" height="70" as="geometry" />
        </mxCell>
        <mxCell id="dv6Ycer3h3GkwvG8xL8Q-5" value="1.2" style="swimlane;childLayout=stackLayout;horizontal=1;startSize=50;horizontalStack=0;rounded=1;fontSize=14;fontStyle=0;strokeWidth=2;resizeParent=0;resizeLast=1;shadow=0;dashed=0;align=center;arcSize=4;whiteSpace=wrap;html=1;" vertex="1" parent="1">
          <mxGeometry x="495" y="200" width="160" height="120" as="geometry" />
        </mxCell>
        <mxCell id="dv6Ycer3h3GkwvG8xL8Q-6" value="Profile Management" style="text;html=1;align=center;verticalAlign=middle;resizable=0;points=[];autosize=1;strokeColor=none;fillColor=none;container=1;" vertex="1" parent="dv6Ycer3h3GkwvG8xL8Q-5">
          <mxGeometry y="50" width="160" height="70" as="geometry" />
        </mxCell>
        <mxCell id="dv6Ycer3h3GkwvG8xL8Q-7" value="1.4" style="swimlane;childLayout=stackLayout;horizontal=1;startSize=50;horizontalStack=0;rounded=1;fontSize=14;fontStyle=0;strokeWidth=2;resizeParent=0;resizeLast=1;shadow=0;dashed=0;align=center;arcSize=4;whiteSpace=wrap;html=1;" vertex="1" parent="1">
          <mxGeometry x="860" y="200" width="160" height="120" as="geometry" />
        </mxCell>
        <mxCell id="dv6Ycer3h3GkwvG8xL8Q-8" value="Appointment Cancellation" style="text;html=1;align=center;verticalAlign=middle;resizable=0;points=[];autosize=1;strokeColor=none;fillColor=none;container=1;" vertex="1" parent="dv6Ycer3h3GkwvG8xL8Q-7">
          <mxGeometry y="50" width="160" height="70" as="geometry" />
        </mxCell>
        <mxCell id="dv6Ycer3h3GkwvG8xL8Q-9" value="1.3" style="swimlane;childLayout=stackLayout;horizontal=1;startSize=50;horizontalStack=0;rounded=1;fontSize=14;fontStyle=0;strokeWidth=2;resizeParent=0;resizeLast=1;shadow=0;dashed=0;align=center;arcSize=4;whiteSpace=wrap;html=1;" vertex="1" parent="1">
          <mxGeometry x="680" y="200" width="160" height="120" as="geometry" />
        </mxCell>
        <mxCell id="dv6Ycer3h3GkwvG8xL8Q-10" value="Appointment Booking" style="text;html=1;align=center;verticalAlign=middle;resizable=0;points=[];autosize=1;strokeColor=none;fillColor=none;container=1;" vertex="1" parent="dv6Ycer3h3GkwvG8xL8Q-9">
          <mxGeometry y="50" width="160" height="70" as="geometry" />
        </mxCell>
        <mxCell id="dv6Ycer3h3GkwvG8xL8Q-11" value="2.1" style="swimlane;childLayout=stackLayout;horizontal=1;startSize=50;horizontalStack=0;rounded=1;fontSize=14;fontStyle=0;strokeWidth=2;resizeParent=0;resizeLast=1;shadow=0;dashed=0;align=center;arcSize=4;whiteSpace=wrap;html=1;" vertex="1" parent="1">
          <mxGeometry x="307" y="330" width="160" height="120" as="geometry" />
        </mxCell>
        <mxCell id="dv6Ycer3h3GkwvG8xL8Q-12" value="Healthcare Provider&lt;br&gt;&amp;nbsp;Registration" style="text;html=1;align=center;verticalAlign=middle;resizable=0;points=[];autosize=1;strokeColor=none;fillColor=none;container=1;" vertex="1" parent="dv6Ycer3h3GkwvG8xL8Q-11">
          <mxGeometry y="50" width="160" height="70" as="geometry" />
        </mxCell>
        <mxCell id="dv6Ycer3h3GkwvG8xL8Q-23" value="1.5" style="swimlane;childLayout=stackLayout;horizontal=1;startSize=50;horizontalStack=0;rounded=1;fontSize=14;fontStyle=0;strokeWidth=2;resizeParent=0;resizeLast=1;shadow=0;dashed=0;align=center;arcSize=4;whiteSpace=wrap;html=1;" vertex="1" parent="1">
          <mxGeometry x="124" y="200" width="165" height="120" as="geometry" />
        </mxCell>
        <mxCell id="dv6Ycer3h3GkwvG8xL8Q-24" value="Patient &amp;amp; Provider Search" style="text;html=1;align=center;verticalAlign=middle;resizable=0;points=[];autosize=1;strokeColor=none;fillColor=none;container=1;" vertex="1" parent="dv6Ycer3h3GkwvG8xL8Q-23">
          <mxGeometry y="50" width="165" height="70" as="geometry" />
        </mxCell>
        <mxCell id="dv6Ycer3h3GkwvG8xL8Q-25" value="" style="edgeStyle=none;orthogonalLoop=1;jettySize=auto;html=1;rounded=0;exitX=0.25;exitY=1;exitDx=0;exitDy=0;entryX=0.344;entryY=0;entryDx=0;entryDy=0;entryPerimeter=0;" edge="1" parent="1" source="dv6Ycer3h3GkwvG8xL8Q-1" target="dv6Ycer3h3GkwvG8xL8Q-2">
          <mxGeometry width="100" relative="1" as="geometry">
            <mxPoint x="320" y="60" as="sourcePoint" />
            <mxPoint x="420" y="60" as="targetPoint" />
            <Array as="points" />
          </mxGeometry>
        </mxCell>
        <mxCell id="dv6Ycer3h3GkwvG8xL8Q-26" value="Patient Info" style="text;html=1;align=center;verticalAlign=middle;resizable=0;points=[];autosize=1;strokeColor=none;fillColor=none;rotation=270;" vertex="1" parent="1">
          <mxGeometry x="310" y="111" width="80" height="30" as="geometry" />
        </mxCell>
        <mxCell id="dv6Ycer3h3GkwvG8xL8Q-27" value="" style="edgeStyle=none;orthogonalLoop=1;jettySize=auto;html=1;rounded=0;exitX=0.5;exitY=1;exitDx=0;exitDy=0;entryX=0.25;entryY=0;entryDx=0;entryDy=0;" edge="1" parent="1" source="dv6Ycer3h3GkwvG8xL8Q-1" target="dv6Ycer3h3GkwvG8xL8Q-5">
          <mxGeometry width="100" relative="1" as="geometry">
            <mxPoint x="370" y="-10" as="sourcePoint" />
            <mxPoint x="470" y="-10" as="targetPoint" />
            <Array as="points">
              <mxPoint x="390" y="160" />
              <mxPoint x="535" y="160" />
            </Array>
          </mxGeometry>
        </mxCell>
        <mxCell id="dv6Ycer3h3GkwvG8xL8Q-28" value="Profile Updates" style="text;html=1;align=center;verticalAlign=middle;resizable=0;points=[];autosize=1;strokeColor=none;fillColor=none;" vertex="1" parent="1">
          <mxGeometry x="405" y="130" width="110" height="30" as="geometry" />
        </mxCell>
        <mxCell id="dv6Ycer3h3GkwvG8xL8Q-29" value="" style="edgeStyle=none;orthogonalLoop=1;jettySize=auto;html=1;rounded=0;exitX=0.75;exitY=1;exitDx=0;exitDy=0;entryX=0.25;entryY=0;entryDx=0;entryDy=0;" edge="1" parent="1" source="dv6Ycer3h3GkwvG8xL8Q-1" target="dv6Ycer3h3GkwvG8xL8Q-9">
          <mxGeometry width="100" relative="1" as="geometry">
            <mxPoint x="470" y="-30" as="sourcePoint" />
            <mxPoint x="570" y="-30" as="targetPoint" />
            <Array as="points">
              <mxPoint x="415" y="120" />
              <mxPoint x="720" y="120" />
            </Array>
          </mxGeometry>
        </mxCell>
        <mxCell id="dv6Ycer3h3GkwvG8xL8Q-30" value="Appointment Booking" style="text;html=1;align=center;verticalAlign=middle;resizable=0;points=[];autosize=1;strokeColor=none;fillColor=none;" vertex="1" parent="1">
          <mxGeometry x="500" y="89" width="140" height="30" as="geometry" />
        </mxCell>
        <mxCell id="dv6Ycer3h3GkwvG8xL8Q-31" value="" style="edgeStyle=none;orthogonalLoop=1;jettySize=auto;html=1;rounded=0;exitX=1;exitY=0.5;exitDx=0;exitDy=0;entryX=0.25;entryY=0;entryDx=0;entryDy=0;" edge="1" parent="1" source="dv6Ycer3h3GkwvG8xL8Q-1" target="dv6Ycer3h3GkwvG8xL8Q-7">
          <mxGeometry width="100" relative="1" as="geometry">
            <mxPoint x="490" y="-60" as="sourcePoint" />
            <mxPoint x="590" y="-60" as="targetPoint" />
            <Array as="points">
              <mxPoint x="480" y="-80" />
              <mxPoint x="480" y="80" />
              <mxPoint x="900" y="80" />
            </Array>
          </mxGeometry>
        </mxCell>
        <mxCell id="dv6Ycer3h3GkwvG8xL8Q-32" value="Cancellation Request" style="text;html=1;align=center;verticalAlign=middle;resizable=0;points=[];autosize=1;strokeColor=none;fillColor=none;" vertex="1" parent="1">
          <mxGeometry x="618" y="50" width="140" height="30" as="geometry" />
        </mxCell>
        <mxCell id="dI5c_Ytppml6vWU_WrjN-1" value="" style="edgeStyle=none;orthogonalLoop=1;jettySize=auto;html=1;rounded=0;exitX=0;exitY=0.5;exitDx=0;exitDy=0;entryX=0.81;entryY=-0.028;entryDx=0;entryDy=0;entryPerimeter=0;" edge="1" parent="1" source="dv6Ycer3h3GkwvG8xL8Q-1" target="dv6Ycer3h3GkwvG8xL8Q-23">
          <mxGeometry width="100" relative="1" as="geometry">
            <mxPoint x="160" y="50" as="sourcePoint" />
            <mxPoint x="260" y="50" as="targetPoint" />
            <Array as="points">
              <mxPoint x="258" y="-80" />
            </Array>
          </mxGeometry>
        </mxCell>
        <mxCell id="dI5c_Ytppml6vWU_WrjN-2" value="Search Criteria" style="text;html=1;align=center;verticalAlign=middle;resizable=0;points=[];autosize=1;strokeColor=none;fillColor=none;rotation=270;" vertex="1" parent="1">
          <mxGeometry x="194" y="59" width="100" height="30" as="geometry" />
        </mxCell>
        <mxCell id="dv6Ycer3h3GkwvG8xL8Q-13" value="2.6" style="swimlane;childLayout=stackLayout;horizontal=1;startSize=50;horizontalStack=0;rounded=1;fontSize=14;fontStyle=0;strokeWidth=2;resizeParent=0;resizeLast=1;shadow=0;dashed=0;align=center;arcSize=4;whiteSpace=wrap;html=1;" vertex="1" parent="1">
          <mxGeometry x="-70" y="335" width="160" height="120" as="geometry" />
        </mxCell>
        <mxCell id="dv6Ycer3h3GkwvG8xL8Q-14" value="Patient &amp;amp; Provider Search" style="text;html=1;align=center;verticalAlign=middle;resizable=0;points=[];autosize=1;strokeColor=none;fillColor=none;container=1;" vertex="1" parent="dv6Ycer3h3GkwvG8xL8Q-13">
          <mxGeometry y="50" width="160" height="70" as="geometry" />
        </mxCell>
        <mxCell id="dv6Ycer3h3GkwvG8xL8Q-15" value="3.1" style="swimlane;childLayout=stackLayout;horizontal=1;startSize=50;horizontalStack=0;rounded=1;fontSize=14;fontStyle=0;strokeWidth=2;resizeParent=0;resizeLast=1;shadow=0;dashed=0;align=center;arcSize=4;whiteSpace=wrap;html=1;" vertex="1" parent="1">
          <mxGeometry x="-70" y="200" width="160" height="120" as="geometry" />
        </mxCell>
        <mxCell id="dv6Ycer3h3GkwvG8xL8Q-16" value="User Permissions" style="text;html=1;align=center;verticalAlign=middle;resizable=0;points=[];autosize=1;strokeColor=none;fillColor=none;container=1;" vertex="1" parent="dv6Ycer3h3GkwvG8xL8Q-15">
          <mxGeometry y="50" width="160" height="70" as="geometry" />
        </mxCell>
        <mxCell id="dv6Ycer3h3GkwvG8xL8Q-17" value="2.5" style="swimlane;childLayout=stackLayout;horizontal=1;startSize=50;horizontalStack=0;rounded=1;fontSize=14;fontStyle=0;strokeWidth=2;resizeParent=0;resizeLast=1;shadow=0;dashed=0;align=center;arcSize=4;whiteSpace=wrap;html=1;" vertex="1" parent="1">
          <mxGeometry x="126.5" y="330" width="160" height="120" as="geometry" />
        </mxCell>
        <mxCell id="dv6Ycer3h3GkwvG8xL8Q-18" value="Multi-provider &lt;br&gt;Collaboration" style="text;html=1;align=center;verticalAlign=middle;resizable=0;points=[];autosize=1;strokeColor=none;fillColor=none;container=1;" vertex="1" parent="dv6Ycer3h3GkwvG8xL8Q-17">
          <mxGeometry y="50" width="160" height="70" as="geometry" />
        </mxCell>
        <mxCell id="dv6Ycer3h3GkwvG8xL8Q-19" value="2.4" style="swimlane;childLayout=stackLayout;horizontal=1;startSize=50;horizontalStack=0;rounded=1;fontSize=14;fontStyle=0;strokeWidth=2;resizeParent=0;resizeLast=1;shadow=0;dashed=0;align=center;arcSize=4;whiteSpace=wrap;html=1;" vertex="1" parent="1">
          <mxGeometry x="860" y="335" width="160" height="120" as="geometry" />
        </mxCell>
        <mxCell id="dv6Ycer3h3GkwvG8xL8Q-20" value="Write/Edit Prescription" style="text;html=1;align=center;verticalAlign=middle;resizable=0;points=[];autosize=1;strokeColor=none;fillColor=none;container=1;" vertex="1" parent="dv6Ycer3h3GkwvG8xL8Q-19">
          <mxGeometry y="50" width="160" height="70" as="geometry" />
        </mxCell>
        <mxCell id="dv6Ycer3h3GkwvG8xL8Q-21" value="2.3" style="swimlane;childLayout=stackLayout;horizontal=1;startSize=50;horizontalStack=0;rounded=1;fontSize=14;fontStyle=0;strokeWidth=2;resizeParent=0;resizeLast=1;shadow=0;dashed=0;align=center;arcSize=4;whiteSpace=wrap;html=1;" vertex="1" parent="1">
          <mxGeometry x="680" y="330" width="160" height="120" as="geometry" />
        </mxCell>
        <mxCell id="dv6Ycer3h3GkwvG8xL8Q-22" value="Prescription &lt;br&gt;History Access" style="text;html=1;align=center;verticalAlign=middle;resizable=0;points=[];autosize=1;strokeColor=none;fillColor=none;container=1;" vertex="1" parent="dv6Ycer3h3GkwvG8xL8Q-21">
          <mxGeometry y="50" width="160" height="70" as="geometry" />
        </mxCell>
        <mxCell id="dI5c_Ytppml6vWU_WrjN-3" value="Healthcare Provider" style="rounded=1;arcSize=10;whiteSpace=wrap;html=1;align=center;" vertex="1" parent="1">
          <mxGeometry x="335" y="610" width="100" height="40" as="geometry" />
        </mxCell>
        <mxCell id="dI5c_Ytppml6vWU_WrjN-5" value="Provider Info" style="text;html=1;align=center;verticalAlign=middle;resizable=0;points=[];autosize=1;strokeColor=none;fillColor=none;rotation=-90;" vertex="1" parent="1">
          <mxGeometry x="284" y="525" width="90" height="30" as="geometry" />
        </mxCell>
        <mxCell id="dI5c_Ytppml6vWU_WrjN-6" value="2.2" style="swimlane;childLayout=stackLayout;horizontal=1;startSize=50;horizontalStack=0;rounded=1;fontSize=14;fontStyle=0;strokeWidth=2;resizeParent=0;resizeLast=1;shadow=0;dashed=0;align=center;arcSize=4;whiteSpace=wrap;html=1;" vertex="1" parent="1">
          <mxGeometry x="490" y="330" width="160" height="120" as="geometry" />
        </mxCell>
        <mxCell id="dI5c_Ytppml6vWU_WrjN-7" value="Profile Management" style="text;html=1;align=center;verticalAlign=middle;resizable=0;points=[];autosize=1;strokeColor=none;fillColor=none;container=1;" vertex="1" parent="dI5c_Ytppml6vWU_WrjN-6">
          <mxGeometry y="50" width="160" height="70" as="geometry" />
        </mxCell>
        <mxCell id="dI5c_Ytppml6vWU_WrjN-9" value="" style="edgeStyle=none;orthogonalLoop=1;jettySize=auto;html=1;rounded=0;exitX=0.25;exitY=0;exitDx=0;exitDy=0;" edge="1" parent="1">
          <mxGeometry width="100" relative="1" as="geometry">
            <mxPoint x="340" y="610" as="sourcePoint" />
            <mxPoint x="340" y="450" as="targetPoint" />
            <Array as="points" />
          </mxGeometry>
        </mxCell>
        <mxCell id="dI5c_Ytppml6vWU_WrjN-10" value="" style="edgeStyle=none;orthogonalLoop=1;jettySize=auto;html=1;rounded=0;exitX=0.5;exitY=0;exitDx=0;exitDy=0;entryX=0.193;entryY=0.984;entryDx=0;entryDy=0;entryPerimeter=0;" edge="1" parent="1" source="dI5c_Ytppml6vWU_WrjN-3" target="dI5c_Ytppml6vWU_WrjN-7">
          <mxGeometry width="100" relative="1" as="geometry">
            <mxPoint x="390" y="520" as="sourcePoint" />
            <mxPoint x="490" y="520" as="targetPoint" />
            <Array as="points">
              <mxPoint x="385" y="480" />
              <mxPoint x="520" y="480" />
            </Array>
          </mxGeometry>
        </mxCell>
        <mxCell id="dI5c_Ytppml6vWU_WrjN-11" value="Profile Updates" style="text;html=1;align=center;verticalAlign=middle;resizable=0;points=[];autosize=1;strokeColor=none;fillColor=none;" vertex="1" parent="1">
          <mxGeometry x="386" y="455" width="110" height="30" as="geometry" />
        </mxCell>
        <mxCell id="dI5c_Ytppml6vWU_WrjN-13" value="" style="edgeStyle=none;orthogonalLoop=1;jettySize=auto;html=1;rounded=0;exitX=0.631;exitY=0.015;exitDx=0;exitDy=0;exitPerimeter=0;entryX=0.473;entryY=1.025;entryDx=0;entryDy=0;entryPerimeter=0;" edge="1" parent="1" source="dI5c_Ytppml6vWU_WrjN-3" target="dv6Ycer3h3GkwvG8xL8Q-22">
          <mxGeometry width="100" relative="1" as="geometry">
            <mxPoint x="410" y="540" as="sourcePoint" />
            <mxPoint x="510" y="540" as="targetPoint" />
            <Array as="points">
              <mxPoint x="398" y="500" />
              <mxPoint x="756" y="500" />
            </Array>
          </mxGeometry>
        </mxCell>
        <mxCell id="dI5c_Ytppml6vWU_WrjN-14" value="Access Request" style="text;html=1;align=center;verticalAlign=middle;resizable=0;points=[];autosize=1;strokeColor=none;fillColor=none;" vertex="1" parent="1">
          <mxGeometry x="555" y="472" width="110" height="30" as="geometry" />
        </mxCell>
        <mxCell id="dI5c_Ytppml6vWU_WrjN-15" value="" style="edgeStyle=none;orthogonalLoop=1;jettySize=auto;html=1;rounded=0;exitX=0.75;exitY=0;exitDx=0;exitDy=0;entryX=0.51;entryY=1.004;entryDx=0;entryDy=0;entryPerimeter=0;" edge="1" parent="1" source="dI5c_Ytppml6vWU_WrjN-3" target="dv6Ycer3h3GkwvG8xL8Q-20">
          <mxGeometry width="100" relative="1" as="geometry">
            <mxPoint x="450" y="600" as="sourcePoint" />
            <mxPoint x="550" y="600" as="targetPoint" />
            <Array as="points">
              <mxPoint x="410" y="520" />
              <mxPoint x="942" y="520" />
            </Array>
          </mxGeometry>
        </mxCell>
        <mxCell id="dI5c_Ytppml6vWU_WrjN-16" value="Prescription Info" style="text;html=1;align=center;verticalAlign=middle;resizable=0;points=[];autosize=1;strokeColor=none;fillColor=none;" vertex="1" parent="1">
          <mxGeometry x="805" y="492" width="110" height="30" as="geometry" />
        </mxCell>
        <mxCell id="dI5c_Ytppml6vWU_WrjN-17" value="" style="edgeStyle=none;orthogonalLoop=1;jettySize=auto;html=1;rounded=0;exitX=0;exitY=0.25;exitDx=0;exitDy=0;entryX=0.447;entryY=1.042;entryDx=0;entryDy=0;entryPerimeter=0;" edge="1" parent="1" source="dI5c_Ytppml6vWU_WrjN-3" target="dv6Ycer3h3GkwvG8xL8Q-18">
          <mxGeometry width="100" relative="1" as="geometry">
            <mxPoint x="150" y="540" as="sourcePoint" />
            <mxPoint x="250" y="540" as="targetPoint" />
            <Array as="points">
              <mxPoint x="200" y="620" />
            </Array>
          </mxGeometry>
        </mxCell>
        <mxCell id="dI5c_Ytppml6vWU_WrjN-19" value="Collaboration Request" style="text;html=1;align=center;verticalAlign=middle;resizable=0;points=[];autosize=1;strokeColor=none;fillColor=none;rotation=90;" vertex="1" parent="1">
          <mxGeometry x="144" y="525" width="140" height="30" as="geometry" />
        </mxCell>
        <mxCell id="dI5c_Ytppml6vWU_WrjN-21" value="Healthcare Provider Administrator" style="rounded=1;arcSize=10;whiteSpace=wrap;html=1;align=center;" vertex="1" parent="1">
          <mxGeometry x="-60" y="-105" width="100" height="50" as="geometry" />
        </mxCell>
        <mxCell id="dI5c_Ytppml6vWU_WrjN-22" value="" style="edgeStyle=none;orthogonalLoop=1;jettySize=auto;html=1;rounded=0;exitX=0.5;exitY=1;exitDx=0;exitDy=0;entryX=0.365;entryY=-0.033;entryDx=0;entryDy=0;entryPerimeter=0;" edge="1" parent="1" source="dI5c_Ytppml6vWU_WrjN-21" target="dv6Ycer3h3GkwvG8xL8Q-15">
          <mxGeometry width="100" relative="1" as="geometry">
            <mxPoint x="-50" y="10" as="sourcePoint" />
            <mxPoint x="50" y="10" as="targetPoint" />
            <Array as="points" />
          </mxGeometry>
        </mxCell>
        <mxCell id="dI5c_Ytppml6vWU_WrjN-23" value="Permission Changes" style="text;html=1;align=center;verticalAlign=middle;resizable=0;points=[];autosize=1;strokeColor=none;fillColor=none;rotation=90;" vertex="1" parent="1">
          <mxGeometry x="-55" y="75" width="130" height="30" as="geometry" />
        </mxCell>
        <mxCell id="dI5c_Ytppml6vWU_WrjN-24" value="" style="edgeStyle=none;orthogonalLoop=1;jettySize=auto;html=1;rounded=0;" edge="1" parent="1">
          <mxGeometry width="100" relative="1" as="geometry">
            <mxPoint x="330" y="641.3333333333334" as="sourcePoint" />
            <mxPoint y="460" as="targetPoint" />
            <Array as="points">
              <mxPoint y="641" />
            </Array>
          </mxGeometry>
        </mxCell>
        <mxCell id="dI5c_Ytppml6vWU_WrjN-25" value="Search Criteria" style="text;html=1;align=center;verticalAlign=middle;resizable=0;points=[];autosize=1;strokeColor=none;fillColor=none;" vertex="1" parent="1">
          <mxGeometry x="30" y="610" width="100" height="30" as="geometry" />
        </mxCell>
        <mxCell id="dI5c_Ytppml6vWU_WrjN-26" value="" style="edgeStyle=none;orthogonalLoop=1;jettySize=auto;html=1;rounded=0;exitX=0;exitY=0.75;exitDx=0;exitDy=0;entryX=0.344;entryY=0;entryDx=0;entryDy=0;entryPerimeter=0;" edge="1" parent="1" source="dv6Ycer3h3GkwvG8xL8Q-1">
          <mxGeometry width="100" relative="1" as="geometry">
            <mxPoint x="330" y="-60" as="sourcePoint" />
            <mxPoint x="330" y="200" as="targetPoint" />
            <Array as="points" />
          </mxGeometry>
        </mxCell>
        <mxCell id="dI5c_Ytppml6vWU_WrjN-27" value="Registration Confirmation" style="text;html=1;align=center;verticalAlign=middle;resizable=0;points=[];autosize=1;strokeColor=none;fillColor=none;rotation=-85;" vertex="1" parent="1">
          <mxGeometry x="241" y="29" width="160" height="30" as="geometry" />
        </mxCell>
        <mxCell id="dI5c_Ytppml6vWU_WrjN-28" value="" style="edgeStyle=none;orthogonalLoop=1;jettySize=auto;html=1;rounded=0;exitX=0.25;exitY=0;exitDx=0;exitDy=0;" edge="1" parent="1">
          <mxGeometry width="100" relative="1" as="geometry">
            <mxPoint x="370" y="610" as="sourcePoint" />
            <mxPoint x="370" y="450" as="targetPoint" />
            <Array as="points" />
          </mxGeometry>
        </mxCell>
        <mxCell id="dI5c_Ytppml6vWU_WrjN-30" value="Registration Confirmation" style="text;html=1;align=center;verticalAlign=middle;resizable=0;points=[];autosize=1;strokeColor=none;fillColor=none;rotation=-90;" vertex="1" parent="1">
          <mxGeometry x="280" y="525" width="160" height="30" as="geometry" />
        </mxCell>
        <mxCell id="dI5c_Ytppml6vWU_WrjN-31" value="" style="edgeStyle=none;orthogonalLoop=1;jettySize=auto;html=1;rounded=0;exitX=0.356;exitY=1.067;exitDx=0;exitDy=0;exitPerimeter=0;entryX=1;entryY=0.5;entryDx=0;entryDy=0;" edge="1" parent="1" source="dI5c_Ytppml6vWU_WrjN-7" target="dI5c_Ytppml6vWU_WrjN-3">
          <mxGeometry width="100" relative="1" as="geometry">
            <mxPoint x="480" y="580" as="sourcePoint" />
            <mxPoint x="580" y="580" as="targetPoint" />
            <Array as="points">
              <mxPoint x="547" y="630" />
            </Array>
          </mxGeometry>
        </mxCell>
        <mxCell id="dI5c_Ytppml6vWU_WrjN-33" value="Profile Confirmation" style="text;html=1;align=center;verticalAlign=middle;resizable=0;points=[];autosize=1;strokeColor=none;fillColor=none;" vertex="1" parent="1">
          <mxGeometry x="427" y="600" width="130" height="30" as="geometry" />
        </mxCell>
        <mxCell id="dI5c_Ytppml6vWU_WrjN-34" value="" style="edgeStyle=none;orthogonalLoop=1;jettySize=auto;html=1;rounded=0;exitX=0.594;exitY=-0.035;exitDx=0;exitDy=0;exitPerimeter=0;entryX=1;entryY=0.25;entryDx=0;entryDy=0;" edge="1" parent="1" source="dv6Ycer3h3GkwvG8xL8Q-9" target="dv6Ycer3h3GkwvG8xL8Q-1">
          <mxGeometry width="100" relative="1" as="geometry">
            <mxPoint x="720" y="150" as="sourcePoint" />
            <mxPoint x="820" y="150" as="targetPoint" />
            <Array as="points">
              <mxPoint x="775" y="-90" />
            </Array>
          </mxGeometry>
        </mxCell>
        <mxCell id="dI5c_Ytppml6vWU_WrjN-35" value="Booking Confirmation" style="text;html=1;align=center;verticalAlign=middle;resizable=0;points=[];autosize=1;strokeColor=none;fillColor=none;" vertex="1" parent="1">
          <mxGeometry x="550" y="-120" width="140" height="30" as="geometry" />
        </mxCell>
        <mxCell id="dI5c_Ytppml6vWU_WrjN-36" value="" style="edgeStyle=none;orthogonalLoop=1;jettySize=auto;html=1;rounded=0;exitX=0;exitY=0.475;exitDx=0;exitDy=0;exitPerimeter=0;entryX=1;entryY=0.75;entryDx=0;entryDy=0;" edge="1" parent="1" source="dv6Ycer3h3GkwvG8xL8Q-10" target="dI5c_Ytppml6vWU_WrjN-3">
          <mxGeometry width="100" relative="1" as="geometry">
            <mxPoint x="620" y="610" as="sourcePoint" />
            <mxPoint x="720" y="610" as="targetPoint" />
            <Array as="points">
              <mxPoint x="650" y="640" />
            </Array>
          </mxGeometry>
        </mxCell>
        <mxCell id="dI5c_Ytppml6vWU_WrjN-38" value="Booking Notification" style="text;html=1;align=center;verticalAlign=middle;resizable=0;points=[];autosize=1;strokeColor=none;fillColor=none;" vertex="1" parent="1">
          <mxGeometry x="525" y="635" width="130" height="30" as="geometry" />
        </mxCell>
        <mxCell id="dI5c_Ytppml6vWU_WrjN-39" value="" style="edgeStyle=none;orthogonalLoop=1;jettySize=auto;html=1;rounded=0;exitX=0.5;exitY=0;exitDx=0;exitDy=0;entryX=1;entryY=0.75;entryDx=0;entryDy=0;" edge="1" parent="1" source="dv6Ycer3h3GkwvG8xL8Q-7" target="dv6Ycer3h3GkwvG8xL8Q-1">
          <mxGeometry width="100" relative="1" as="geometry">
            <mxPoint x="910" y="30" as="sourcePoint" />
            <mxPoint x="1010" y="30" as="targetPoint" />
            <Array as="points">
              <mxPoint x="940" y="-70" />
            </Array>
          </mxGeometry>
        </mxCell>
        <mxCell id="dI5c_Ytppml6vWU_WrjN-40" value="Cancellation Confirmation" style="text;html=1;align=center;verticalAlign=middle;resizable=0;points=[];autosize=1;strokeColor=none;fillColor=none;" vertex="1" parent="1">
          <mxGeometry x="780" y="-95" width="160" height="30" as="geometry" />
        </mxCell>
        <mxCell id="dI5c_Ytppml6vWU_WrjN-41" value="" style="edgeStyle=none;orthogonalLoop=1;jettySize=auto;html=1;rounded=0;exitX=1.016;exitY=0.368;exitDx=0;exitDy=0;exitPerimeter=0;entryX=0.75;entryY=1;entryDx=0;entryDy=0;" edge="1" parent="1" source="dv6Ycer3h3GkwvG8xL8Q-8" target="dI5c_Ytppml6vWU_WrjN-3">
          <mxGeometry width="100" relative="1" as="geometry">
            <mxPoint x="1040" y="270" as="sourcePoint" />
            <mxPoint x="1140" y="270" as="targetPoint" />
            <Array as="points">
              <mxPoint x="1100" y="276" />
              <mxPoint x="1100" y="690" />
              <mxPoint x="410" y="690" />
            </Array>
          </mxGeometry>
        </mxCell>
        <mxCell id="dI5c_Ytppml6vWU_WrjN-42" value="Cancellation Notification" style="text;html=1;align=center;verticalAlign=middle;resizable=0;points=[];autosize=1;strokeColor=none;fillColor=none;" vertex="1" parent="1">
          <mxGeometry x="825" y="665" width="150" height="30" as="geometry" />
        </mxCell>
        <mxCell id="dI5c_Ytppml6vWU_WrjN-43" value="" style="edgeStyle=none;orthogonalLoop=1;jettySize=auto;html=1;rounded=0;exitX=0.25;exitY=0.993;exitDx=0;exitDy=0;exitPerimeter=0;entryX=0.5;entryY=1;entryDx=0;entryDy=0;" edge="1" parent="1" source="dv6Ycer3h3GkwvG8xL8Q-22" target="dI5c_Ytppml6vWU_WrjN-3">
          <mxGeometry width="100" relative="1" as="geometry">
            <mxPoint x="660" y="610" as="sourcePoint" />
            <mxPoint x="760" y="610" as="targetPoint" />
            <Array as="points">
              <mxPoint x="720" y="750" />
              <mxPoint x="385" y="750" />
            </Array>
          </mxGeometry>
        </mxCell>
        <mxCell id="dI5c_Ytppml6vWU_WrjN-44" value="Prescription History" style="text;html=1;align=center;verticalAlign=middle;resizable=0;points=[];autosize=1;strokeColor=none;fillColor=none;" vertex="1" parent="1">
          <mxGeometry x="485" y="725" width="130" height="30" as="geometry" />
        </mxCell>
        <mxCell id="dI5c_Ytppml6vWU_WrjN-45" value="" style="edgeStyle=none;orthogonalLoop=1;jettySize=auto;html=1;rounded=0;exitX=0.75;exitY=1.029;exitDx=0;exitDy=0;exitPerimeter=0;entryX=0.25;entryY=1;entryDx=0;entryDy=0;" edge="1" parent="1" source="dv6Ycer3h3GkwvG8xL8Q-20" target="dI5c_Ytppml6vWU_WrjN-3">
          <mxGeometry width="100" relative="1" as="geometry">
            <mxPoint x="830" y="580" as="sourcePoint" />
            <mxPoint x="930" y="580" as="targetPoint" />
            <Array as="points">
              <mxPoint x="980" y="800" />
              <mxPoint x="360" y="800" />
            </Array>
          </mxGeometry>
        </mxCell>
        <mxCell id="dI5c_Ytppml6vWU_WrjN-46" value="Prescription Confirmation" style="text;html=1;align=center;verticalAlign=middle;resizable=0;points=[];autosize=1;strokeColor=none;fillColor=none;" vertex="1" parent="1">
          <mxGeometry x="660" y="775" width="160" height="30" as="geometry" />
        </mxCell>
        <mxCell id="dI5c_Ytppml6vWU_WrjN-47" value="" style="edgeStyle=none;orthogonalLoop=1;jettySize=auto;html=1;rounded=0;exitX=0.131;exitY=1.046;exitDx=0;exitDy=0;exitPerimeter=0;entryX=0;entryY=1;entryDx=0;entryDy=0;" edge="1" parent="1" source="dv6Ycer3h3GkwvG8xL8Q-18" target="dI5c_Ytppml6vWU_WrjN-3">
          <mxGeometry width="100" relative="1" as="geometry">
            <mxPoint x="70" y="520" as="sourcePoint" />
            <mxPoint x="170" y="520" as="targetPoint" />
            <Array as="points">
              <mxPoint x="150" y="730" />
              <mxPoint x="335" y="730" />
            </Array>
          </mxGeometry>
        </mxCell>
        <mxCell id="dI5c_Ytppml6vWU_WrjN-48" value="Collaboration Results" style="text;html=1;align=center;verticalAlign=middle;resizable=0;points=[];autosize=1;strokeColor=none;fillColor=none;" vertex="1" parent="1">
          <mxGeometry x="170" y="701" width="140" height="30" as="geometry" />
        </mxCell>
      </root>
    </mxGraphModel>
  </diagram>
</mxfile>
